<svg width="35" height="37" viewBox="0 0 35 37" fill="none" xmlns="http://www.w3.org/2000/svg">
<path d="M34.8307 18.2419C34.8307 8.40676 27.083 0.401383 17.5538 0.392586C17.5453 0.392586 17.5453 0.383789 17.5368 0.383789C17.5283 0.383789 17.5197 0.392586 17.5197 0.392586C14.1189 0.392586 10.846 1.41305 8.0503 3.32203C7.43661 2.82939 6.67803 2.52149 5.84275 2.52149C3.84828 2.52149 2.22032 4.20174 2.22032 6.26026C2.22032 7.13118 2.52716 7.93172 3.01299 8.56511C1.20604 11.4418 0.234375 14.7759 0.234375 18.2419C0.234375 28.0859 7.99063 36.0913 17.5283 36.0913L17.5368 36.1001V36.0913C21.6536 36.0913 25.5914 34.5782 28.7109 31.8423C29.2649 32.1942 29.9127 32.4053 30.6031 32.4053C32.5976 32.4053 34.2255 30.7338 34.2255 28.6665C34.2255 27.6197 33.7908 26.6696 33.109 25.9834C34.2341 23.5906 34.8307 20.9339 34.8307 18.2419ZM5.84275 4.22813C6.92521 4.22813 7.81164 5.14303 7.81164 6.26026C7.81164 7.3775 6.92521 8.2924 5.84275 8.2924C4.76028 8.2924 3.87385 7.3775 3.87385 6.26026C3.87385 5.14303 4.76028 4.22813 5.84275 4.22813ZM4.31706 9.62956C4.77733 9.85829 5.29725 9.99904 5.84275 9.99904C7.83721 9.99904 9.46517 8.31879 9.46517 6.26026C9.46517 5.68845 9.32028 5.14303 9.09867 4.65919C10.1641 3.95542 11.2892 3.3924 12.4739 2.97014C10.2238 5.45973 8.57874 9.59437 8.0162 14.5735C6.5928 14.8287 5.45067 15.9459 5.11826 17.3886H1.922C2.05837 14.6175 2.87662 11.9696 4.31706 9.62956ZM8.63841 16.2098C9.72087 16.2098 10.5988 17.1247 10.5988 18.2419C10.5988 18.805 10.3772 19.3064 10.0277 19.6759C9.66973 20.0453 9.17538 20.2741 8.63841 20.2741C7.54742 20.2741 6.66951 19.3592 6.66951 18.2419C6.66951 17.1247 7.54742 16.2098 8.63841 16.2098ZM1.93052 19.0953H5.11826C5.45067 20.538 6.5928 21.6552 8.0162 21.9103C8.57874 26.8807 10.2238 31.0066 12.4654 33.5049C6.57575 31.4112 2.27146 25.7899 1.93052 19.0953ZM16.71 34.2967C13.3263 33.5665 10.4368 28.4906 9.66973 21.8048C10.8971 21.4177 11.8517 20.3972 12.15 19.0953H16.71V34.2967ZM16.71 17.3886H12.15C11.8517 16.0866 10.8971 15.0662 9.66973 14.6791C10.4368 7.9933 13.3263 2.91736 16.71 2.196V17.3886ZM33.1345 17.3886H29.9468C29.6229 15.9459 28.4808 14.8287 27.0489 14.5735C26.4948 9.60317 24.8498 5.47732 22.6082 2.98774C28.4978 5.07265 32.7936 10.694 33.1345 17.3886ZM28.3956 18.2419C28.3956 19.3592 27.5176 20.2741 26.4352 20.2741C25.3527 20.2741 24.4663 19.3592 24.4663 18.2419C24.4663 17.6789 24.6879 17.1775 25.0459 16.808C25.4039 16.4385 25.8982 16.2098 26.4352 16.2098C27.5176 16.2098 28.3956 17.1247 28.3956 18.2419ZM18.3636 2.196C21.7388 2.91736 24.6282 8.00209 25.3953 14.6791C24.168 15.0662 23.2134 16.0866 22.915 17.3886H18.3636V2.196ZM18.3636 34.2967V19.0953H22.915C23.2134 20.3972 24.168 21.4177 25.3953 21.8048C24.6282 28.4906 21.7388 33.5665 18.3636 34.2967ZM27.5347 30.6371C26.0602 31.9039 24.3896 32.8715 22.6082 33.5049C24.8498 31.0066 26.4948 26.8807 27.0489 21.9103C28.4808 21.6552 29.6144 20.538 29.9468 19.0953H33.1516C33.0493 21.189 32.5464 23.2475 31.677 25.1213C31.3361 25.0157 30.9781 24.9365 30.6031 24.9365C28.6086 24.9365 26.9807 26.608 26.9807 28.6665C26.9807 29.3967 27.1938 30.0653 27.5347 30.6371ZM30.6031 30.6987C29.5206 30.6987 28.6342 29.7926 28.6342 28.6665C28.6342 27.5493 29.5206 26.6432 30.6031 26.6432C31.6856 26.6432 32.572 27.5493 32.572 28.6665C32.572 29.7926 31.6856 30.6987 30.6031 30.6987Z" fill="#007988"/>
</svg>
