<svg width="33" height="24" viewBox="0 0 33 24" fill="none" xmlns="http://www.w3.org/2000/svg">
<path d="M28.6 3.69678C24.63 0.71663 20.8263 0.800387 20.8263 0.800387L20.4376 1.24593C25.1573 2.66632 27.3507 4.75503 27.3507 4.75503C20.598 1.02559 11.997 1.05235 4.97338 4.75503C4.97338 4.75503 7.24991 2.55476 12.2475 1.13437L11.97 0.800039C11.97 0.800039 8.19399 0.71663 4.19629 3.69643C4.19629 3.69643 0.198242 10.9096 0.198242 19.7941C0.198242 19.7941 2.53055 23.8047 8.66621 23.9996C8.66621 23.9996 9.69343 22.7742 10.5263 21.716C7.00047 20.6577 5.66767 18.4574 5.66767 18.4574C7.88288 19.8479 10.1227 20.7182 12.914 21.2704C17.4553 22.2081 23.1042 21.244 27.3233 18.4574C27.3233 18.4574 25.9351 20.7133 22.298 21.7438C23.1309 22.7742 24.1304 23.9718 24.1304 23.9718C30.2661 23.7769 32.598 19.7663 32.598 19.7944C32.5977 10.9099 28.6 3.69678 28.6 3.69678ZM11.2202 17.2042C9.66537 17.2042 8.38835 15.8394 8.38835 14.1407C8.50199 10.072 13.9669 10.0845 14.0521 14.1407C14.0521 15.8394 12.8025 17.2042 11.2202 17.2042ZM21.3536 17.2042C19.7987 17.2042 18.5217 15.8394 18.5217 14.1407C18.6464 10.08 24.0431 10.0783 24.1855 14.1407C24.1855 15.8394 22.9362 17.2042 21.3536 17.2042Z" fill="#00A9BE"/>
</svg>
