<svg width="27" height="30" viewBox="0 0 27 30" fill="none" xmlns="http://www.w3.org/2000/svg">
<path fill-rule="evenodd" clip-rule="evenodd" d="M16.6867 1.19982C18.5659 -0.124563 21.2086 0.0515746 22.5249 1.90666C23.8414 3.76192 23.1174 6.30212 21.2374 7.61425L21.2373 7.61434C21.0102 7.77283 20.7721 7.91526 20.5248 8.04059C20.3998 8.10398 20.2614 8.13697 20.121 8.13685L13.9556 8.13152C13.6638 8.13126 13.3908 7.98838 13.2253 7.74937C13.0599 7.51035 13.0233 7.20577 13.1274 6.93472C13.9788 4.7175 14.8623 2.48557 16.6867 1.19982ZM21.0747 2.9237C20.4396 2.02859 18.9648 1.75702 17.7131 2.63919C16.6418 3.39422 15.9616 4.65265 15.2573 6.36828L19.898 6.37229C20.0075 6.30983 20.1142 6.2424 20.2177 6.17023C21.4686 5.29713 21.7097 3.81863 21.0747 2.9237ZM0.234375 14.3433C0.234375 13.8561 0.631663 13.4612 1.12174 13.4612H26.1102C26.6003 13.4612 26.9976 13.8561 26.9976 14.3433V26.975C26.9976 27.7744 26.6781 28.5411 26.1096 29.1063C25.541 29.6716 24.7698 29.9892 23.9657 29.9892H3.26621C2.46212 29.9892 1.69096 29.6716 1.12238 29.1063C0.5538 28.5411 0.234375 27.7744 0.234375 26.975V14.3433ZM2.00911 15.2255V26.975C2.00911 27.3065 2.14155 27.6244 2.37731 27.8588C2.61306 28.0931 2.93281 28.2248 3.26621 28.2248H23.9657C24.2991 28.2248 24.6189 28.0931 24.8546 27.8588C25.0904 27.6244 25.2228 27.3065 25.2228 26.975V15.2255H2.00911Z" fill="#035D68"/>
</svg>
