<svg width="45" height="45" viewBox="0 0 45 45" fill="none" xmlns="http://www.w3.org/2000/svg">
<path d="M22.1744 19C16.2052 19 11.3488 21.9161 11.3488 25.5C11.3488 29.0839 16.2052 32 22.1744 32C28.1436 32 33 29.0839 33 25.5C33 21.9161 28.1436 19 22.1744 19ZM16.0659 24.1319C16.0911 23.5802 16.3393 23.0591 16.7586 22.6773C17.1779 22.2954 17.7359 22.0823 18.3164 22.0823C18.8969 22.0823 19.455 22.2954 19.8743 22.6773C20.2936 23.0591 20.5417 23.5802 20.567 24.1319C20.5417 24.6835 20.2936 25.2046 19.8743 25.5864C19.455 25.9683 18.8969 26.1814 18.3164 26.1814C17.7359 26.1814 17.1779 25.9683 16.7586 25.5864C16.3393 25.2046 16.0911 24.6835 16.0659 24.1319ZM26.927 29.2759C26.8844 29.3178 26.4921 29.695 25.7062 30.0573C24.6914 30.5237 23.4947 30.7603 22.1516 30.7603C20.7986 30.7603 19.6176 30.5197 18.6397 30.0451C17.878 29.6747 17.517 29.2867 17.4786 29.2434C17.4072 29.1653 17.3529 29.0745 17.3188 28.9762C17.2847 28.878 17.2715 28.7742 17.28 28.671C17.2884 28.5679 17.3184 28.4673 17.3681 28.3753C17.4178 28.2832 17.4863 28.2015 17.5695 28.1349C17.7353 28.0001 17.9502 27.933 18.1677 27.9482C18.3851 27.9634 18.5875 28.0596 18.7307 28.216C18.7335 28.2187 19.7156 29.188 22.1531 29.188C24.6203 29.188 25.7005 28.2201 25.746 28.1781C25.8992 28.0316 26.1071 27.9487 26.3244 27.9474C26.5416 27.9461 26.7506 28.0266 26.9057 28.1714C27.0607 28.3161 27.1498 28.5129 27.1538 28.7195C27.1578 28.9261 27.0764 29.1259 26.927 29.2759ZM26.3031 26.2719C25.0624 26.2719 24.0518 25.3121 24.0518 24.1319C24.0518 22.9516 25.0609 21.9918 26.3031 21.9918C27.5438 21.9918 28.5529 22.9516 28.5529 24.1319C28.5529 25.3121 27.5438 26.2719 26.3031 26.2719ZM12.3806 20.4979C12.1099 20.41 11.821 20.3848 11.538 20.4243C11.2549 20.4638 10.9859 20.567 10.7531 20.7252C10.5204 20.8834 10.3307 21.0921 10.1997 21.334C10.0687 21.5759 10.0003 21.8441 10 22.1162C10 22.4447 10.1023 22.7637 10.2871 23.0368C10.7419 22.1216 11.4539 21.2563 12.3806 20.4979Z" fill="white"/>
<path d="M22.5 0C10.073 0 0 10.0744 0 22.5C0 34.9256 10.0744 45 22.5 45C34.927 45 45 34.9256 45 22.5C45 10.0744 34.927 0 22.5 0ZM34.7738 24.9694C34.8075 25.2239 34.8244 25.4756 34.8244 25.7189C34.8244 30.3483 29.2852 34.1156 22.4761 34.1156C15.667 34.1156 10.1278 30.3483 10.1278 25.7189C10.1278 25.4658 10.1461 25.2042 10.1827 24.9384C9.75238 24.623 9.4025 24.2105 9.16135 23.7346C8.92021 23.2587 8.79459 22.7326 8.79469 22.1991C8.79543 21.2937 9.1554 20.4257 9.79556 19.7856C10.4357 19.1454 11.3037 18.7854 12.2091 18.7847C12.9431 18.7847 13.6575 19.0238 14.2453 19.4611C16.3617 18.1744 19.0603 17.4234 21.8981 17.3334L24.0736 11.153L29.2866 12.3989C29.5278 11.9406 29.89 11.557 30.3337 11.2898C30.7774 11.0225 31.2858 10.8819 31.8037 10.883C32.5594 10.8841 33.2838 11.1848 33.8181 11.7191C34.3524 12.2534 34.6531 12.9778 34.6542 13.7334C34.6531 14.489 34.3524 15.2132 33.818 15.7473C33.2837 16.2814 32.5593 16.5818 31.8037 16.5825C31.0954 16.5813 30.4128 16.3168 29.8887 15.8404C29.3645 15.3641 29.0361 14.7098 28.9673 14.0048L25.1283 13.0866L23.625 17.3587C26.2603 17.5247 28.7606 18.2686 30.735 19.4766C31.3256 19.0294 32.047 18.7847 32.7909 18.7847C33.6963 18.7854 34.5643 19.1454 35.2044 19.7856C35.8446 20.4257 36.2046 21.2937 36.2053 22.1991C36.2058 22.7417 36.076 23.2765 35.8269 23.7586C35.5778 24.2406 35.2166 24.6559 34.7738 24.9694Z" fill="white"/>
</svg>
