<svg width="45" height="45" viewBox="0 0 45 45" fill="none" xmlns="http://www.w3.org/2000/svg">
<path d="M22.5 0C10.0744 0 0 10.0744 0 22.5C0 34.9256 10.0744 45 22.5 45C34.9256 45 45 34.9256 45 22.5C45 10.0744 34.9256 0 22.5 0ZM33.5512 15.4144L29.8575 32.8144C29.5856 34.0481 28.8506 34.3481 27.825 33.7669L22.2 29.6231L19.4888 32.2369C19.2263 32.5744 18.8194 32.79 18.3637 32.79C18.36 32.79 18.3581 32.79 18.3544 32.79L18.7537 27.0638L29.1788 17.6475C29.6288 17.2481 29.0775 17.0213 28.4794 17.4206L15.6 25.5319L10.05 23.7994C8.85 23.4187 8.81625 22.5994 10.3031 22.0106L31.9894 13.6519C32.9981 13.2844 33.8756 13.8919 33.5494 15.4163L33.5512 15.4144Z" fill="white"/>
</svg>
