<svg width="23" height="20" viewBox="0 0 23 20" fill="none" xmlns="http://www.w3.org/2000/svg">
<path d="M16.6143 6.91604C17.3136 6.20266 18.0078 4.53813 15.0942 6.55935C12.3725 8.4703 9.63238 10.3538 6.8742 12.2095C6.45419 12.4032 6.00012 12.5084 5.53928 12.5186C5.07844 12.5288 4.62032 12.4439 4.19246 12.2689C2.44433 11.7339 0.403575 11.0205 0.403575 11.0205C0.403575 11.0205 -0.989863 10.1275 1.39545 9.17634C1.39545 9.17634 11.4801 4.95426 14.9777 3.46678C16.3179 2.87231 20.8643 0.969983 20.8643 0.969983C20.8643 0.969983 22.9633 0.136424 22.7885 2.15893C22.7303 2.9912 22.2641 5.90672 21.7979 9.05744C21.0974 13.5173 20.3399 18.3946 20.3399 18.3946C20.3399 18.3946 20.2233 19.7619 19.2327 19.9997C18.1723 19.9814 17.1477 19.6051 16.3192 18.9296C16.0861 18.7513 11.9476 16.0748 10.4313 14.767C10.277 14.6604 10.1517 14.5157 10.067 14.3465C9.98227 14.1772 9.94089 13.9888 9.94671 13.7988C9.95252 13.6089 10.0053 13.4235 10.1002 13.2599C10.1952 13.0964 10.3291 12.96 10.4895 12.8634C12.5692 10.9222 14.6112 8.93935 16.6143 6.91604Z" fill="#00A9BE"/>
</svg>
