<svg width="24" height="26" viewBox="0 0 24 26" fill="none" xmlns="http://www.w3.org/2000/svg">
<path d="M23.7995 11.1462V6.60782C21.6567 6.60782 20.0214 6.04052 18.9662 4.93789C17.8831 3.67948 17.2763 2.08586 17.2503 0.431466V0.103872L12.9245 0V18.4332C12.7761 19.2374 12.3825 19.9772 11.7969 20.5525C11.2112 21.1279 10.4617 21.5111 9.64943 21.6505C8.83721 21.79 8.00141 21.6789 7.25486 21.3322C6.50832 20.9855 5.88698 20.42 5.47473 19.712C5.06248 19.004 4.87916 18.1876 4.94953 17.373C5.0199 16.5583 5.34056 15.7847 5.86823 15.1566C6.3959 14.5285 7.10517 14.076 7.90028 13.8604C8.69539 13.6448 9.53807 13.6763 10.3145 13.9507V9.55617C9.86182 9.4826 9.40387 9.44519 8.94511 9.44431C7.29453 9.44431 5.68101 9.92979 4.3086 10.8394C2.93619 11.7489 1.86653 13.0417 1.23488 14.5543C0.603225 16.0669 0.437957 17.7313 0.75997 19.337C1.08198 20.9427 1.87681 22.4177 3.04395 23.5753C4.21109 24.733 5.69812 25.5214 7.31698 25.8408C8.93585 26.1602 10.6139 25.9962 12.1388 25.3697C13.6637 24.7432 14.9671 23.6822 15.8841 22.3209C16.8012 20.9597 17.2906 19.3593 17.2906 17.7221C17.2897 17.3828 17.2682 17.044 17.2262 16.7073V9.39637C19.1932 10.6148 21.4817 11.224 23.7995 11.1462Z" fill="#00A9BE"/>
</svg>
