<svg width="37" height="36" viewBox="0 0 37 36" fill="none" xmlns="http://www.w3.org/2000/svg">
<path d="M16.5961 0.33705L16.6382 1.71116C17.53 1.6081 18.4191 1.63833 19.3108 1.66719L19.3529 0.293078C18.4068 0.192768 17.4662 0.279337 16.5961 0.33705ZM20.7958 0.422244L20.5827 1.75375C21.4582 1.88292 22.3133 2.09453 23.1711 2.31164L23.5105 0.980132C22.6146 0.70531 21.7188 0.547288 20.7958 0.422244ZM15.1112 0.55141C14.1814 0.731418 13.3141 1.02823 12.4386 1.36763L12.9055 2.65517C13.5014 2.36935 14.1393 2.22645 14.7719 2.05331L15.4505 1.88155L15.1112 0.55141ZM24.952 1.45282L24.3575 2.69777C25.1963 3.04816 26.065 3.50299 26.7763 3.85751L27.3694 2.61257C26.5306 2.26217 25.6619 1.80734 24.952 1.45282ZM11.1233 1.88292C10.2641 2.28966 9.38045 2.84342 8.7072 3.25703L9.38588 4.45937C10.1284 3.92622 11.0038 3.48238 11.7178 3.12649L11.1233 1.88292ZM28.6006 3.47139L27.7943 4.58716C28.5544 5.07772 29.2494 5.7689 29.8303 6.3048L30.7628 5.27422C30.1004 4.58716 29.3498 4.05538 28.6006 3.47139ZM7.47609 4.15844C6.72411 4.7177 6.09702 5.39514 5.48214 6.09044L6.50015 7.03582C7.12725 6.26632 7.71362 5.78813 8.40994 5.14643L7.47609 4.15844ZM18.5046 4.3728C11.0161 4.3728 4.93105 10.5329 4.93105 18.1139C4.93105 25.6948 11.0161 31.8549 18.5046 31.8549C25.9931 31.8549 32.036 25.6948 32.036 18.1139C32.036 10.5329 25.9931 4.3728 18.5046 4.3728ZM18.5046 5.74691C25.2588 5.74691 30.7207 11.2763 30.7207 18.1139C30.7207 24.9514 25.2588 30.4808 18.5046 30.4808C11.7504 30.4808 6.24633 24.9514 6.24633 18.1139C6.24633 11.2763 11.7504 5.74691 18.5046 5.74691ZM31.8243 6.34877L30.7207 7.16224C31.3397 7.9496 31.7781 8.57482 32.3333 9.35257L33.4354 8.53772C32.8314 7.73799 32.3862 7.11689 31.8229 6.34739L31.8243 6.34877ZM4.54963 7.20759C3.91711 8.01419 3.53162 8.69162 3.02261 9.52571L4.2103 10.2554C4.62022 9.44876 5.18759 8.66002 5.6518 8.02243L4.54963 7.20759ZM34.1548 9.86923L32.9251 10.4711C33.3961 11.3285 33.6228 12.0403 33.9431 12.917L35.2163 12.4457C34.9353 11.4508 34.5702 10.7555 34.1548 9.86923ZM2.34258 10.8572C1.99917 11.7504 1.72091 12.6573 1.4508 13.5628L2.76743 13.9064C2.94117 13.0132 3.31309 12.1832 3.61442 11.3285L2.34258 10.8572ZM23.1264 12.5748C23.083 12.5848 23.0407 12.5991 23.0001 12.6174C22.9033 12.6543 22.816 12.7131 22.7449 12.7892L13.2435 22.408C12.7263 22.9232 13.7104 23.9195 14.2194 23.3959L23.7209 13.7772C24.2027 13.3883 23.7236 12.4168 23.1264 12.5748ZM15.0705 12.6174C14.8027 12.6168 14.5374 12.6696 14.2898 12.7729C14.0422 12.8762 13.8172 13.0279 13.6276 13.2193C13.248 13.6078 13.035 14.1322 13.035 14.6786C13.035 15.2251 13.248 15.7494 13.6276 16.1379C14.0114 16.5226 14.5297 16.7385 15.0698 16.7385C15.6099 16.7385 16.1282 16.5226 16.512 16.1379C16.8916 15.7494 17.1046 15.2251 17.1046 14.6786C17.1046 14.1322 16.8916 13.6078 16.512 13.2193C16.3226 13.028 16.0977 12.8764 15.8504 12.7731C15.6031 12.6699 15.338 12.617 15.0705 12.6174ZM35.6846 13.9064L34.3707 14.0767C34.4833 14.996 34.6299 15.9084 34.7507 16.825L36.1081 16.6106C36.0158 15.7009 35.8461 14.805 35.6846 13.9064ZM15.0705 13.9476C15.2415 13.9476 15.4424 14.0259 15.5795 14.1633C15.8509 14.4381 15.8509 14.8751 15.5795 15.1513C15.308 15.4261 14.8764 15.4261 14.6035 15.1513C14.3321 14.8765 14.3321 14.4395 14.6035 14.1633C14.7393 14.0259 14.8981 13.9476 15.0705 13.9476ZM1.15761 14.9369C0.967582 15.8755 0.91736 16.8153 0.860352 17.7703L2.2177 17.8129C2.22721 16.9129 2.36294 16.0335 2.51496 15.1513L1.15761 14.9369ZM34.7521 18.757C34.7385 19.7504 34.6055 20.4856 34.4548 21.42L35.8122 21.6357C35.9655 20.6917 36.0619 19.6749 36.1094 18.8435L34.7521 18.757ZM2.25978 19.1005L0.90243 19.1871C0.92279 20.1283 1.11689 21.049 1.24177 21.9792L2.59912 21.7635C2.46668 20.8789 2.35354 19.9901 2.25978 19.1005ZM21.898 19.488C21.6302 19.4873 21.3649 19.5401 21.1173 19.6434C20.8697 19.7467 20.6447 19.8984 20.4551 20.0898C20.075 20.4784 19.8618 21.003 19.8618 21.5498C19.8618 22.0966 20.075 22.6213 20.4551 23.0098C20.8389 23.3946 21.3572 23.6104 21.8973 23.6104C22.4374 23.6104 22.9557 23.3946 23.3395 23.0098C23.7195 22.6213 23.9327 22.0966 23.9327 21.5498C23.9327 21.003 23.7195 20.4784 23.3395 20.0898C23.15 19.8986 22.9252 19.7469 22.6779 19.6437C22.4305 19.5404 22.1655 19.4875 21.898 19.488ZM21.898 20.8621C22.0703 20.8621 22.2278 20.939 22.3649 21.0765C22.6364 21.3526 22.6364 21.7456 22.3649 22.0218C22.0934 22.2967 21.6618 22.2967 21.3889 22.0218C21.1175 21.747 21.1175 21.3526 21.3889 21.0765C21.5247 20.939 21.7256 20.8621 21.898 20.8621ZM34.1996 22.6223C33.9067 23.4656 33.5807 24.2966 33.2223 25.1136L34.4535 25.7141C34.9014 24.8841 35.1959 23.903 35.4715 23.095L34.1996 22.6223ZM2.9371 22.9658L1.66526 23.4385C1.92316 24.4087 2.30322 25.2043 2.72535 26.0576L3.91304 25.4571C3.55863 24.6387 3.23312 23.8077 2.9371 22.9658ZM32.6292 26.2733C32.2233 27.0772 31.6777 27.7862 31.1456 28.5062L32.2478 29.3211C32.8287 28.5172 33.2929 27.8096 33.8169 27.003L32.6292 26.2733ZM4.54963 26.5729L3.40403 27.3039C3.8506 28.1339 4.4967 28.9391 4.97313 29.622L6.07666 28.8058C5.49299 28.0981 4.9677 27.2586 4.54963 26.5729ZM30.3814 29.4503C29.7082 30.0933 28.9575 30.7598 28.3454 31.2971L29.2792 32.3276L31.2705 30.4808L30.3814 29.4503ZM6.925 29.7086L5.99114 30.6952C6.66982 31.3548 7.44079 31.991 8.11268 32.542L8.91895 31.4249C8.10997 30.8821 7.60096 30.3421 6.92364 29.7072L6.925 29.7086ZM27.3274 31.9827C26.5835 32.4678 25.7908 32.8429 24.9941 33.2277L25.5465 34.4726C26.4546 34.114 27.1482 33.6646 28.006 33.1425L27.3274 31.9827ZM10.0211 32.1545L9.30037 33.3129C10.1664 33.8845 10.8803 34.2074 11.7599 34.6458L12.3544 33.3994C11.5251 33.0532 10.6903 32.5626 10.0211 32.1545ZM23.8498 33.743C22.9608 33.9862 21.9998 34.2308 21.2193 34.43L21.5586 35.7615C22.5223 35.4977 23.2607 35.3122 24.1892 35.0745L23.8498 33.743ZM13.5 33.8295L13.1607 35.1597C14.1366 35.451 14.8832 35.5925 15.8754 35.7615L16.0871 34.3874C15.1967 34.3105 14.2601 34.026 13.5 33.8295ZM19.9882 34.5166C19.1113 34.6059 18.2372 34.5839 17.359 34.5578L17.2748 35.9319C18.2114 35.9993 19.1371 35.9457 20.0737 35.8907L19.9882 34.5166Z" fill="#007988"/>
</svg>
