<svg width="58" height="61" viewBox="0 0 58 61" fill="none" xmlns="http://www.w3.org/2000/svg">
<g clip-path="url(#clip0_442_649)">
<path d="M51.4081 10.8215V27.3756C51.4081 35.4013 48.5002 42.7912 43.6144 48.6683C39.8002 53.2609 34.7807 56.9303 29 59.2584C28.8278 59.1889 28.6556 59.1179 28.4834 59.0453C28.4709 59.0407 28.4573 59.0349 28.4449 59.0302C28.3429 58.9874 28.241 58.9434 28.139 58.8982C28.1028 58.8831 28.0677 58.8681 28.0314 58.8519C27.9498 58.8171 27.8694 58.7812 27.789 58.7453C27.6564 58.6874 27.525 58.6283 27.3948 58.5681C27.2894 58.5194 27.1841 58.4708 27.0787 58.421C26.9734 58.3723 26.868 58.3225 26.7638 58.2727C26.6596 58.2229 26.5554 58.172 26.4511 58.121C21.8263 55.8687 17.7157 52.6483 14.3855 48.6683C9.49973 42.7912 6.5918 35.4013 6.5918 27.3756V10.8215C9.10664 11.0496 15.8786 11.3392 22.475 7.42422C24.9783 5.943 27.1908 3.99926 29 1.69189C31.374 4.09709 34.1236 6.08064 37.1358 7.5609C40.0375 8.98363 43.1318 9.95272 46.315 10.4358C48.0009 10.6946 49.7034 10.8236 51.4081 10.8215Z" fill="#00A9BE"/>
<path d="M46.3151 10.4358L46.3105 10.4351C43.1289 9.95182 40.0362 8.98297 37.1359 7.5609C34.1237 6.08064 31.374 4.09709 29 1.69189C29 8.87323 35.9784 11.6609 42.9166 13.9106C42.929 13.9135 42.9416 13.9155 42.9543 13.9164C43.8861 14.0565 44.7376 14.5342 45.3536 15.2625C45.9697 15.9908 46.3093 16.9213 46.3105 17.8842V25.6382C46.3105 33.6639 43.4026 41.0537 38.5168 46.9309C34.8759 51.3149 30.136 54.8567 24.6846 57.1946C25.2635 57.5179 25.8524 57.8267 26.4512 58.121C26.5554 58.172 26.6596 58.2229 26.7638 58.2727C26.8681 58.3225 26.9734 58.3723 27.0788 58.421C27.1841 58.4708 27.2895 58.5194 27.3948 58.5681C27.5251 58.6283 27.6565 58.6874 27.789 58.7453C27.8695 58.7812 27.9499 58.8171 28.0315 58.8519C28.0677 58.8681 28.1028 58.8831 28.1391 58.8982C28.241 58.9434 28.343 58.9874 28.4449 59.0302C28.4574 59.0349 28.471 59.0407 28.4835 59.0453C28.6556 59.1183 28.8278 59.1893 29 59.2584C33.8134 57.3353 38.1819 54.4074 41.8266 50.6614L41.8826 50.6031C42.0064 50.4743 42.1293 50.3447 42.2512 50.2142C42.2879 50.175 42.3245 50.1357 42.3609 50.0962C42.4651 49.9836 42.5685 49.8704 42.6711 49.7565L42.7981 49.6153C42.8984 49.5029 42.9979 49.3899 43.0965 49.2761C43.1356 49.2311 43.1751 49.1864 43.214 49.1412C43.3488 48.9846 43.4823 48.827 43.6144 48.6683C48.5003 42.7912 51.4082 35.4013 51.4082 27.3756V10.8215C49.7034 10.8236 48.0009 10.6946 46.3151 10.4358Z" fill="#035D68"/>
<path d="M6.60905 10.8228L6.5918 10.8213V10.8243L6.60905 10.8228Z" fill="#787681"/>
<path d="M28.9995 44.9536C36.8197 44.9536 43.1593 38.4713 43.1593 30.4751C43.1593 22.4788 36.8197 15.9966 28.9995 15.9966C21.1794 15.9966 14.8398 22.4788 14.8398 30.4751C14.8398 38.4713 21.1794 44.9536 28.9995 44.9536Z" fill="#61ECFF"/>
<path d="M29 15.9966C28.1452 15.9964 27.2921 16.0752 26.4512 16.2321C33.0465 17.4631 38.062 23.3812 38.062 30.4751C38.062 37.569 33.0464 43.4872 26.4512 44.7181C28.3865 45.0802 30.3744 45.0259 32.288 44.5587C34.2017 44.0916 35.9991 43.2218 37.5658 42.0049C39.1324 40.7879 40.4339 39.2506 41.3871 37.4908C42.3404 35.731 42.9245 33.7874 43.1023 31.784C43.2801 29.7805 43.0476 27.7612 42.4197 25.8547C41.7918 23.9482 40.7823 22.1964 39.4555 20.7111C38.1286 19.2257 36.5136 18.0393 34.7135 17.2276C32.9133 16.4159 30.9674 15.9966 29 15.9966Z" fill="#0094A9"/>
<path d="M28.9995 45.8224C20.7233 45.8224 13.9902 38.9375 13.9902 30.4751C13.9902 22.0127 20.7232 15.1279 28.9995 15.1279C37.2759 15.1279 44.0089 22.0127 44.0089 30.4751C44.0089 38.9375 37.2759 45.8224 28.9995 45.8224ZM28.9995 16.8654C26.367 16.8653 23.7934 17.6634 21.6045 19.1588C19.4155 20.6542 17.7094 22.7797 16.7019 25.2666C15.6944 27.7534 15.4307 30.4899 15.9442 33.13C16.4578 35.7701 17.7255 38.1951 19.587 40.0986C21.4485 42.002 23.8202 43.2982 26.4022 43.8234C28.9842 44.3486 31.6605 44.0791 34.0927 43.049C36.5249 42.0189 38.6038 40.2745 40.0664 38.0364C41.529 35.7983 42.3096 33.1669 42.3096 30.4751C42.3057 26.8669 40.9022 23.4076 38.4069 20.8562C35.9116 18.3047 32.5284 16.8695 28.9995 16.8654Z" fill="#61ECFF"/>
<path d="M29.0004 9.74201C29.1685 9.74201 29.3327 9.69106 29.4724 9.59561C29.6122 9.50015 29.7211 9.36448 29.7854 9.20574C29.8497 9.04701 29.8665 8.87234 29.8337 8.70382C29.8009 8.53531 29.72 8.38052 29.6012 8.25903C29.4824 8.13754 29.331 8.0548 29.1662 8.02128C29.0014 7.98776 28.8305 8.00497 28.6753 8.07072C28.52 8.13647 28.3874 8.24781 28.294 8.39067C28.2006 8.53353 28.1508 8.70149 28.1508 8.8733C28.1508 9.1037 28.2403 9.32466 28.3997 9.48757C28.559 9.65049 28.7751 9.74201 29.0004 9.74201ZM29.0004 53.1775C28.8324 53.1775 28.6681 53.2285 28.5284 53.3239C28.3887 53.4194 28.2798 53.5551 28.2155 53.7138C28.1512 53.8725 28.1344 54.0472 28.1671 54.2157C28.1999 54.3842 28.2808 54.539 28.3997 54.6605C28.5185 54.782 28.6699 54.8647 28.8347 54.8983C28.9995 54.9318 29.1703 54.9146 29.3256 54.8488C29.4808 54.7831 29.6135 54.6717 29.7068 54.5289C29.8002 54.386 29.85 54.218 29.85 54.0462C29.85 53.8158 29.7605 53.5949 29.6012 53.432C29.4419 53.269 29.2258 53.1775 29.0004 53.1775ZM10.0076 13.5455C9.83953 13.5455 9.67527 13.5964 9.53555 13.6919C9.39584 13.7873 9.28694 13.923 9.22264 14.0817C9.15833 14.2405 9.14151 14.4151 9.17429 14.5836C9.20707 14.7522 9.28799 14.9069 9.40681 15.0284C9.52563 15.1499 9.67701 15.2327 9.84182 15.2662C10.0066 15.2997 10.1775 15.2825 10.3327 15.2168C10.4879 15.151 10.6206 15.0397 10.714 14.8968C10.8074 14.7539 10.8572 14.586 10.8572 14.4142C10.8572 14.1838 10.7677 13.9628 10.6083 13.7999C10.449 13.637 10.2329 13.5455 10.0076 13.5455ZM13.9911 30.4752C13.9911 38.9376 20.7242 45.8224 29.0004 45.8224C37.2766 45.8224 44.0097 38.9376 44.0097 30.4752C44.0097 22.0128 37.2768 15.128 29.0004 15.128C20.7241 15.128 13.9911 22.0128 13.9911 30.4752ZM42.3105 30.4752C42.3104 33.1669 41.5297 35.7981 40.0671 38.036C38.6046 40.274 36.5258 42.0183 34.0937 43.0483C31.6616 44.0783 28.9853 44.3477 26.4035 43.8225C23.8216 43.2974 21.45 42.0012 19.5886 40.0979C17.7272 38.1945 16.4596 35.7696 15.946 33.1296C15.4325 30.4897 15.6961 27.7533 16.7035 25.2666C17.711 22.7798 19.417 20.6544 21.6058 19.159C23.7946 17.6636 26.368 16.8654 29.0004 16.8654C32.5293 16.8695 35.9125 18.3048 38.4078 20.8562C40.9031 23.4077 42.3066 26.867 42.3105 30.4752ZM52.0094 10.2065C51.8501 10.0438 51.6342 9.95245 51.409 9.95247C51.3937 9.95155 51.3789 9.95247 51.3637 9.95247C46.5084 9.95247 41.7171 8.85523 37.5058 6.7782C34.578 5.34094 31.9057 3.41355 29.5992 1.07564C29.5146 0.989735 29.4133 0.922989 29.3019 0.879745C29.1904 0.836501 29.0713 0.817726 28.9523 0.824641C28.8332 0.831557 28.717 0.864007 28.611 0.919884C28.5051 0.97576 28.4118 1.05381 28.3373 1.14896C26.5944 3.37323 24.4621 5.24654 22.049 6.67326C16.0967 10.2057 9.85657 10.2466 6.66713 9.95583C6.54967 9.94514 6.43132 9.95957 6.31961 9.9982C6.20789 10.0368 6.10527 10.0988 6.01827 10.1802C5.93126 10.2616 5.86179 10.3606 5.81426 10.471C5.76673 10.5813 5.74218 10.7006 5.74219 10.8212V27.3757C5.73984 31.3961 6.45868 35.3828 7.86304 39.138C9.24509 42.8199 11.2322 46.2334 13.7385 49.231C17.6682 53.9631 22.8381 57.7101 28.689 60.0667C28.8891 60.1474 29.1117 60.1474 29.3118 60.0667C35.1628 57.7101 40.3326 53.9631 44.2621 49.2314C46.7685 46.2336 48.7557 42.8201 50.1378 39.1381C51.5422 35.3829 52.261 31.3961 52.2586 27.3757V10.8212C52.2586 10.707 52.2366 10.594 52.1939 10.4885C52.1511 10.3831 52.0884 10.2872 52.0094 10.2065ZM50.5594 27.3756C50.5594 34.9632 47.9341 42.1317 42.9672 48.1063C39.2875 52.537 34.4638 56.0645 29.0004 58.3232C23.5371 56.0645 18.7132 52.537 15.0334 48.106C10.0667 42.1316 7.44141 34.9632 7.44141 27.3756V11.755C11.0245 11.9612 17.0802 11.6311 22.902 8.1759C25.2262 6.80116 27.3102 5.04027 29.0686 2.96549C31.3543 5.14571 33.9501 6.95885 36.7676 8.34304C40.9748 10.418 45.7258 11.5656 50.5594 11.6804V27.3756ZM48.0117 15.2829C48.1798 15.2829 48.344 15.2319 48.4838 15.1365C48.6235 15.041 48.7324 14.9053 48.7967 14.7466C48.861 14.5879 48.8778 14.4132 48.845 14.2447C48.8122 14.0762 48.7313 13.9214 48.6125 13.7999C48.4937 13.6784 48.3423 13.5957 48.1775 13.5621C48.0127 13.5286 47.8419 13.5458 47.6866 13.6116C47.5314 13.6773 47.3987 13.7887 47.3053 13.9315C47.212 14.0744 47.1621 14.2424 47.1621 14.4142C47.1621 14.6446 47.2516 14.8655 47.411 15.0284C47.5703 15.1914 47.7864 15.2829 48.0117 15.2829ZM28.3864 21.3067C28.3864 21.0763 28.2969 20.8554 28.1376 20.6925C27.9783 20.5296 27.7622 20.438 27.5368 20.438C27.3115 20.438 27.0954 20.5296 26.9361 20.6925C26.7767 20.8554 26.6872 21.0763 26.6872 21.3067V22.5218H24.2278C24.0024 22.5218 23.7863 22.6133 23.627 22.7762C23.4677 22.9391 23.3782 23.1601 23.3782 23.3905C23.3782 23.6209 23.4677 23.8418 23.627 24.0048C23.7863 24.1677 24.0024 24.2592 24.2278 24.2592H24.9349V36.6913H24.2278C24.0024 36.6913 23.7863 36.7828 23.627 36.9457C23.4677 37.1086 23.3782 37.3296 23.3782 37.56C23.3782 37.7904 23.4677 38.0113 23.627 38.1742C23.7863 38.3372 24.0024 38.4287 24.2278 38.4287H26.6871V39.6437C26.6871 39.8741 26.7766 40.0951 26.9359 40.258C27.0953 40.4209 27.3114 40.5124 27.5367 40.5124C27.762 40.5124 27.9781 40.4209 28.1375 40.258C28.2968 40.0951 28.3863 39.8741 28.3863 39.6437V38.4287H30.2V39.6437C30.2 39.8741 30.2895 40.0951 30.4488 40.258C30.6081 40.4209 30.8242 40.5124 31.0496 40.5124C31.2749 40.5124 31.491 40.4209 31.6503 40.258C31.8097 40.0951 31.8992 39.8741 31.8992 39.6437V38.3413C32.6716 38.163 33.3618 37.7215 33.8566 37.0894C34.3515 36.4573 34.6216 35.6721 34.6227 34.8624V33.1727C34.6227 32.6605 34.5146 32.1544 34.3057 31.6888C34.0968 31.2233 33.7921 30.8093 33.4124 30.4752C33.7921 30.1412 34.0968 29.7272 34.3057 29.2617C34.5146 28.7962 34.6227 28.29 34.6227 27.7778V26.0881C34.6215 25.2785 34.3514 24.4932 33.8565 23.8611C33.3617 23.229 32.6715 22.7876 31.8991 22.6092V21.3069C31.8991 21.0765 31.8096 20.8555 31.6502 20.6926C31.4909 20.5297 31.2748 20.4382 31.0495 20.4382C30.8241 20.4382 30.608 20.5297 30.4487 20.6926C30.2894 20.8555 30.1998 21.0765 30.1998 21.3069V22.5219H28.3864V21.3067ZM32.9235 34.8624C32.9229 35.3473 32.7343 35.8122 32.399 36.155C32.0637 36.4978 31.6091 36.6907 31.1349 36.6913H26.6341V31.3439H31.1349C31.6091 31.3445 32.0638 31.5373 32.3991 31.8802C32.7345 32.2231 32.9231 32.688 32.9236 33.1729L32.9235 34.8624ZM31.1349 24.2592C31.6091 24.2597 32.0638 24.4526 32.3991 24.7955C32.7345 25.1383 32.9231 25.6032 32.9236 26.0881V27.7777C32.923 28.2626 32.7344 28.7275 32.3991 29.0703C32.0637 29.4132 31.6091 29.606 31.1349 29.6065H26.6341V24.2592H31.1349Z" fill="#3C3B41"/>
</g>
<defs>
<clipPath id="clip0_442_649">
<rect width="58" height="59.304" fill="white" transform="translate(0 0.823242)"/>
</clipPath>
</defs>
</svg>
