<svg width="55" height="57" viewBox="0 0 55 57" fill="none" xmlns="http://www.w3.org/2000/svg">
<path d="M39.5312 53.9656C46.6505 53.9656 52.4219 48.0645 52.4219 40.7852C52.4219 33.5058 46.6505 27.6047 39.5312 27.6047C32.412 27.6047 26.6406 33.5058 26.6406 40.7852C26.6406 48.0645 32.412 53.9656 39.5312 53.9656Z" fill="#61ECFF"/>
<path d="M15.4688 29.3623C22.588 29.3623 28.3594 23.4612 28.3594 16.1819C28.3594 8.90255 22.588 3.00146 15.4688 3.00146C8.34945 3.00146 2.57812 8.90255 2.57812 16.1819C2.57812 23.4612 8.34945 29.3623 15.4688 29.3623Z" fill="#61ECFF"/>
<path d="M39.3087 4.83238V3.61627C39.3088 3.44734 39.2613 3.28196 39.1719 3.13991C39.0825 2.99787 38.9549 2.8852 38.8045 2.81538C38.654 2.74556 38.4871 2.72156 38.3237 2.74626C38.1602 2.77095 38.0072 2.84329 37.883 2.95461L33.1719 7.17235C33.0796 7.25482 33.0056 7.35653 32.9549 7.47066C32.9042 7.58478 32.878 7.70867 32.878 7.834C32.878 7.95934 32.9042 8.08323 32.9549 8.19735C33.0056 8.31147 33.0796 8.41319 33.1719 8.49566L37.8821 12.7134C38.0064 12.8247 38.1594 12.8971 38.3228 12.9218C38.4862 12.9464 38.6532 12.9224 38.8036 12.8526C38.9541 12.7828 39.0816 12.6701 39.171 12.5281C39.2605 12.3861 39.308 12.2207 39.3078 12.0517V10.5887C43.044 12.4722 45.9737 15.6929 47.5406 19.6393C47.7014 20.0473 48.006 20.3788 48.3942 20.5683C48.7825 20.7578 49.2261 20.7916 49.6375 20.663L51.2832 20.141C51.5102 20.0701 51.7203 19.9519 51.9004 19.7938C52.0805 19.6357 52.2266 19.4412 52.3296 19.2225C52.4325 19.0038 52.49 18.7657 52.4985 18.5232C52.507 18.2807 52.4663 18.039 52.3789 17.8133C51.2025 14.8395 49.4325 12.1492 47.1821 9.91412C44.9316 7.67903 42.2501 5.94828 39.3087 4.83238ZM15.6913 52.1343V53.3504C15.6912 53.5194 15.7387 53.6847 15.8281 53.8268C15.9175 53.9688 16.0451 54.0815 16.1955 54.1513C16.346 54.2211 16.5129 54.2451 16.6763 54.2204C16.8398 54.1957 16.9928 54.1234 17.117 54.0121L21.8273 49.7943C21.9196 49.7119 21.9935 49.6102 22.0442 49.496C22.0949 49.3819 22.1212 49.258 22.1212 49.1327C22.1212 49.0074 22.0949 48.8835 22.0442 48.7693C21.9935 48.6552 21.9196 48.5535 21.8273 48.471L17.117 44.2533C16.9928 44.142 16.8398 44.0696 16.6763 44.0449C16.5129 44.0203 16.346 44.0443 16.1955 44.1141C16.0451 44.1839 15.9175 44.2966 15.8281 44.4386C15.7387 44.5806 15.6912 44.746 15.6913 44.915V46.3745C11.9551 44.491 9.02545 41.2703 7.45851 37.3239C7.29709 36.9167 6.99236 36.5862 6.60439 36.3973C6.21643 36.2085 5.77335 36.1751 5.3625 36.3037L3.7168 36.8257C3.49002 36.8966 3.28006 37.0148 3.10012 37.1728C2.92018 37.3307 2.77416 37.5251 2.67125 37.7435C2.56833 37.962 2.51075 38.1999 2.50212 38.4422C2.49348 38.6845 2.53399 38.926 2.62109 39.1516C3.79733 42.1257 5.56719 44.8164 7.81766 47.0518C10.0681 49.2872 12.7498 51.0182 15.6913 52.1343Z" fill="#035D68"/>
<path d="M39.5312 26.726C36.8118 26.726 34.1533 27.5506 31.8922 29.0954C29.631 30.6403 27.8686 32.836 26.8279 35.405C25.7872 37.9739 25.5149 40.8008 26.0455 43.528C26.576 46.2552 27.8856 48.7603 29.8085 50.7265C31.7315 52.6927 34.1815 54.0317 36.8488 54.5742C39.516 55.1166 42.2807 54.8382 44.7931 53.7741C47.3056 52.71 49.4531 50.908 50.964 48.596C52.4748 46.284 53.2812 43.5658 53.2812 40.7852C53.2769 37.0578 51.8269 33.4844 49.2492 30.8487C46.6715 28.2131 43.1767 26.7305 39.5312 26.726ZM39.5312 53.0869C37.1517 53.0869 34.8256 52.3654 32.847 51.0137C30.8685 49.662 29.3264 47.7407 28.4158 45.4928C27.5052 43.245 27.2669 40.7715 27.7312 38.3852C28.1954 35.9989 29.3413 33.807 31.0239 32.0865C32.7065 30.3661 34.8502 29.1945 37.1841 28.7198C39.5179 28.2451 41.937 28.4888 44.1354 29.4198C46.3338 30.3509 48.2129 31.9277 49.5349 33.9507C50.8569 35.9737 51.5625 38.3521 51.5625 40.7852C51.5591 44.0467 50.2904 47.1737 48.0349 49.48C45.7793 51.7862 42.7211 53.0834 39.5312 53.0869ZM15.4688 30.2408C18.1882 30.2408 20.8467 29.4163 23.1078 27.8714C25.369 26.3266 27.1314 24.1309 28.1721 21.5619C29.2128 18.9929 29.4851 16.1661 28.9545 13.4389C28.424 10.7117 27.1144 8.20659 25.1915 6.24039C23.2685 4.27418 20.8185 2.93518 18.1512 2.39271C15.484 1.85023 12.7193 2.12865 10.2069 3.19275C7.69437 4.25685 5.54691 6.05885 4.03604 8.37086C2.52517 10.6829 1.71875 13.4011 1.71875 16.1817C1.72307 19.909 3.17312 23.4825 5.7508 26.1181C8.32849 28.7538 11.8233 30.2364 15.4688 30.2408ZM15.4688 3.87996C17.8483 3.87996 20.1744 4.60144 22.153 5.95317C24.1315 7.3049 25.6736 9.22617 26.5842 11.474C27.4948 13.7219 27.7331 16.1953 27.2688 18.5816C26.8046 20.9679 25.6587 23.1599 23.9761 24.8803C22.2935 26.6008 20.1498 27.7724 17.8159 28.2471C15.4821 28.7217 13.063 28.4781 10.8646 27.547C8.66617 26.6159 6.78714 25.0392 5.46513 23.0162C4.14312 20.9932 3.4375 18.6147 3.4375 16.1817C3.44091 12.9201 4.70958 9.79317 6.96514 7.4869C9.2207 5.18064 12.2789 3.88344 15.4688 3.87996Z" fill="#00191D"/>
<path d="M10.3123 20.5752C10.0844 20.5752 9.86584 20.6678 9.70468 20.8326C9.54351 20.9974 9.45297 21.2209 9.45297 21.4539C9.45297 21.687 9.54351 21.9105 9.70468 22.0753C9.86584 22.2401 10.0844 22.3326 10.3123 22.3326H12.8905V23.2113C12.8905 23.4444 12.981 23.6679 13.1422 23.8327C13.3033 23.9975 13.5219 24.09 13.7498 24.09C13.9778 24.09 14.1964 23.9975 14.3575 23.8327C14.5187 23.6679 14.6092 23.4444 14.6092 23.2113V22.3326H16.328V23.2113C16.328 23.4444 16.4185 23.6679 16.5797 23.8327C16.7408 23.9975 16.9594 24.09 17.1873 24.09C17.4153 24.09 17.6339 23.9975 17.795 23.8327C17.9562 23.6679 18.0467 23.4444 18.0467 23.2113V22.3326C18.7466 22.3358 19.4306 22.1195 20.0066 21.713C20.5825 21.3064 21.0227 20.7291 21.2679 20.0588C21.5131 19.3886 21.5514 18.6576 21.3777 17.9643C21.204 17.2711 20.8267 16.649 20.2966 16.1818C20.8267 15.7146 21.204 15.0924 21.3777 14.3992C21.5514 13.706 21.5131 12.975 21.2679 12.3047C21.0227 11.6344 20.5825 11.0571 20.0066 10.6506C19.4306 10.244 18.7466 10.0277 18.0467 10.0309V9.1522C18.0467 8.91916 17.9562 8.69566 17.795 8.53087C17.6339 8.36609 17.4153 8.27351 17.1873 8.27351C16.9594 8.27351 16.7408 8.36609 16.5797 8.53087C16.4185 8.69566 16.328 8.91916 16.328 9.1522V10.0309H14.6092V9.1522C14.6092 8.91916 14.5187 8.69566 14.3575 8.53087C14.1964 8.36609 13.9778 8.27351 13.7498 8.27351C13.5219 8.27351 13.3033 8.36609 13.1422 8.53087C12.981 8.69566 12.8905 8.91916 12.8905 9.1522V10.0309H10.3123C10.0844 10.0309 9.86584 10.1235 9.70468 10.2883C9.54351 10.4531 9.45297 10.6766 9.45297 10.9096C9.45297 11.1426 9.54351 11.3661 9.70468 11.5309C9.86584 11.6957 10.0844 11.7883 10.3123 11.7883H11.1717V20.5752H10.3123ZM12.8905 11.7883H18.0467C18.5026 11.7883 18.9397 11.9734 19.2621 12.303C19.5844 12.6326 19.7655 13.0796 19.7655 13.5457C19.7655 14.0118 19.5844 14.4588 19.2621 14.7883C18.9397 15.1179 18.5026 15.3031 18.0467 15.3031H12.8905V11.7883ZM12.8905 17.0605H18.0467C18.5026 17.0605 18.9397 17.2456 19.2621 17.5752C19.5844 17.9048 19.7655 18.3518 19.7655 18.8179C19.7655 19.2839 19.5844 19.7309 19.2621 20.0605C18.9397 20.3901 18.5026 20.5752 18.0467 20.5752H12.8905V17.0605ZM41.2498 39.9065H37.8123C37.3565 39.9065 36.9193 39.7214 36.597 39.3918C36.2747 39.0622 36.0936 38.6152 36.0936 38.1492C36.0936 37.6831 36.2747 37.2361 36.597 36.9065C36.9193 36.5769 37.3565 36.3918 37.8123 36.3918H42.9686C43.1965 36.3918 43.4151 36.2992 43.5763 36.1344C43.7374 35.9696 43.828 35.7461 43.828 35.5131C43.828 35.28 43.7374 35.0565 43.5763 34.8917C43.4151 34.727 43.1965 34.6344 42.9686 34.6344H40.3905V33.7557C40.3905 33.5226 40.2999 33.2991 40.1388 33.1343C39.9776 32.9696 39.759 32.877 39.5311 32.877C39.3032 32.877 39.0846 32.9696 38.9234 33.1343C38.7623 33.2991 38.6717 33.5226 38.6717 33.7557V34.6344H37.8123C36.9007 34.6344 36.0263 35.0047 35.3817 35.6638C34.737 36.323 34.3748 37.217 34.3748 38.1492C34.3748 39.0813 34.737 39.9753 35.3817 40.6345C36.0263 41.2936 36.9007 41.6639 37.8123 41.6639H41.2498C41.7057 41.6639 42.1429 41.8491 42.4652 42.1787C42.7875 42.5082 42.9686 42.9552 42.9686 43.4213C42.9686 43.8874 42.7875 44.3344 42.4652 44.664C42.1429 44.9936 41.7057 45.1787 41.2498 45.1787H35.2342C35.0063 45.1787 34.7877 45.2713 34.6266 45.4361C34.4654 45.6009 34.3748 45.8244 34.3748 46.0574C34.3748 46.2905 34.4654 46.514 34.6266 46.6787C34.7877 46.8435 35.0063 46.9361 35.2342 46.9361H38.6717V47.8148C38.6717 48.0479 38.7623 48.2714 38.9234 48.4361C39.0846 48.6009 39.3032 48.6935 39.5311 48.6935C39.759 48.6935 39.9776 48.6009 40.1388 48.4361C40.2999 48.2714 40.3905 48.0479 40.3905 47.8148V46.9361H41.2498C42.1615 46.9361 43.0359 46.5658 43.6805 45.9067C44.3252 45.2475 44.6873 44.3535 44.6873 43.4213C44.6873 42.4892 44.3252 41.5952 43.6805 40.936C43.0359 40.2769 42.1615 39.9065 41.2498 39.9065ZM40.1679 4.23766V3.61642C40.1672 3.27902 40.0715 2.94896 39.8923 2.66567C39.713 2.38237 39.4579 2.15782 39.1572 2.01883C38.8565 1.87984 38.523 1.83229 38.1966 1.88186C37.8702 1.93144 37.5647 2.07603 37.3165 2.29838L32.6063 6.51612C32.4234 6.68199 32.277 6.88563 32.1768 7.11358C32.0766 7.34153 32.0247 7.58862 32.0247 7.83855C32.0247 8.08849 32.0766 8.33558 32.1768 8.56353C32.277 8.79148 32.4234 8.99511 32.6063 9.16099L37.3173 13.3787C37.5636 13.5989 37.8662 13.7426 38.1895 13.793C38.5129 13.8434 38.8436 13.7985 39.1428 13.6634C39.4421 13.5283 39.6974 13.3087 39.8788 13.0304C40.0602 12.7521 40.1602 12.4267 40.167 12.0923C43.1342 13.9259 45.443 16.69 46.7498 19.9733C46.99 20.5864 47.4472 21.0845 48.0304 21.3684C48.6137 21.6522 49.2801 21.701 49.8969 21.5049L51.5417 20.9821C51.8804 20.8725 52.1935 20.6931 52.4617 20.455C52.7299 20.2169 52.9475 19.9251 53.1011 19.5976C53.2546 19.2701 53.3409 18.9139 53.3546 18.551C53.3683 18.188 53.309 17.8261 53.1805 17.4875C51.9967 14.4964 50.2337 11.7808 47.9976 9.50383C45.7614 7.2269 43.0982 5.43565 40.1679 4.23766ZM51.5572 18.8354C51.506 18.9471 51.4325 19.0465 51.3413 19.1272C51.25 19.2079 51.1433 19.2681 51.0278 19.3038L49.383 19.8257C49.1772 19.8905 48.955 19.8734 48.761 19.7777C48.567 19.6821 48.4156 19.515 48.3371 19.3099C46.6889 15.1688 43.6152 11.7878 39.6961 9.80508C39.565 9.73893 39.4195 9.70788 39.2735 9.71482C39.1274 9.72176 38.9854 9.76648 38.8609 9.84478C38.7363 9.92309 38.6332 10.0324 38.5612 10.1625C38.4892 10.2927 38.4506 10.4394 38.4491 10.5889V12.0519L33.738 7.83416L38.4491 3.61642V4.82902C38.4491 5.00637 38.5015 5.1796 38.5995 5.32592C38.6975 5.47225 38.8365 5.58482 38.9983 5.64885C41.8283 6.72483 44.4084 8.39113 46.5745 10.5418C48.7406 12.6925 50.4454 15.2805 51.5804 18.1413C51.6241 18.2522 51.6446 18.3713 51.6406 18.4909C51.6366 18.6104 51.6082 18.7278 51.5572 18.8354ZM14.8318 52.7294V53.3444C14.8353 53.6806 14.9325 54.0088 15.112 54.2905C15.2915 54.5721 15.5459 54.7956 15.8452 54.9346C16.1446 55.0737 16.4766 55.1225 16.8021 55.0754C17.1277 55.0283 17.4333 54.8872 17.6832 54.6686L22.3934 50.4509C22.5763 50.285 22.7227 50.0814 22.8229 49.8534C22.9231 49.6255 22.975 49.3784 22.975 49.1285C22.975 48.8785 22.9231 48.6314 22.8229 48.4035C22.7227 48.1755 22.5763 47.9719 22.3934 47.806L17.6823 43.5883C17.4361 43.3681 17.1335 43.2244 16.8102 43.174C16.4868 43.1236 16.1561 43.1685 15.8569 43.3036C15.5576 43.4387 15.3023 43.6583 15.1209 43.9366C14.9395 44.2149 14.8395 44.5403 14.8327 44.8747C11.8659 43.0384 9.55849 40.2714 8.25414 36.9858C8.01482 36.372 7.5577 35.8733 6.97421 35.5893C6.39072 35.3053 5.7239 35.2571 5.10711 35.4542L3.46227 35.977C3.12361 36.0866 2.81052 36.266 2.54232 36.5041C2.27412 36.7422 2.05651 37.034 1.90293 37.3615C1.74935 37.689 1.66306 38.0452 1.64939 38.4081C1.63572 38.7711 1.69495 39.133 1.82344 39.4716C3.00594 42.4638 4.76785 45.1807 7.00329 47.459C9.23874 49.7373 11.9016 51.53 14.8318 52.7294ZM3.4425 38.1316C3.49366 38.0199 3.56723 37.9205 3.65844 37.8398C3.74964 37.7591 3.85644 37.6989 3.97188 37.6632L5.61672 37.1413C5.82255 37.078 6.04413 37.0958 6.23774 37.1913C6.43134 37.2867 6.58293 37.4529 6.66258 37.6571C8.31078 41.7982 11.3845 45.1792 15.3036 47.1619C15.4347 47.2281 15.5801 47.2591 15.7262 47.2522C15.8723 47.2452 16.0142 47.2005 16.1388 47.1222C16.2634 47.0439 16.3665 46.9346 16.4385 46.8045C16.5105 46.6743 16.5491 46.5277 16.5506 46.3781V44.9151L21.2616 49.1329L16.5506 53.3506V52.138C16.5506 51.9606 16.4982 51.7874 16.4002 51.6411C16.3022 51.4948 16.1632 51.3822 16.0014 51.3182C13.1714 50.2422 10.5913 48.5759 8.4252 46.4252C6.25907 44.2745 4.55431 41.6865 3.4193 38.8258C3.37561 38.7148 3.3551 38.5957 3.3591 38.4762C3.36309 38.3566 3.3915 38.2392 3.4425 38.1316Z" fill="#00191D"/>
</svg>
