<svg width="170" height="54" viewBox="0 0 170 54" fill="none" xmlns="http://www.w3.org/2000/svg">
<path d="M102.113 18.4352C102.113 8.81629 94.3652 0.986934 84.8361 0.97833C84.8275 0.97833 84.8275 0.969727 84.819 0.969727C84.8105 0.969727 84.802 0.97833 84.802 0.97833C81.4012 0.97833 78.1282 1.97636 75.3325 3.84336C74.7188 3.36155 73.9603 3.06042 73.125 3.06042C71.1305 3.06042 69.5025 4.70373 69.5025 6.71699C69.5025 7.56876 69.8094 8.35169 70.2952 8.97116C68.4883 11.7846 67.5166 15.0454 67.5166 18.4352C67.5166 28.0627 75.2729 35.8921 84.8105 35.8921L84.819 35.9007V35.8921C88.9358 35.8921 92.8736 34.4123 95.9931 31.7365C96.5472 32.0807 97.1949 32.2872 97.8853 32.2872C99.8798 32.2872 101.508 30.6525 101.508 28.6306C101.508 27.6068 101.073 26.6776 100.391 26.0065C101.516 23.6663 102.113 21.0679 102.113 18.4352ZM73.125 4.72954C74.2074 4.72954 75.0939 5.62432 75.0939 6.71699C75.0939 7.80966 74.2074 8.70444 73.125 8.70444C72.0425 8.70444 71.1561 7.80966 71.1561 6.71699C71.1561 5.62432 72.0425 4.72954 73.125 4.72954ZM71.5993 10.0122C72.0596 10.2359 72.5795 10.3736 73.125 10.3736C75.1194 10.3736 76.7474 8.73026 76.7474 6.71699C76.7474 6.15775 76.6025 5.62432 76.3809 5.15112C77.4463 4.46282 78.5714 3.91219 79.7561 3.49921C77.506 5.93406 75.861 9.97779 75.2984 14.8475C73.875 15.097 72.7329 16.1897 72.4005 17.6007H69.2042C69.3406 14.8905 70.1588 12.3008 71.5993 10.0122ZM75.9206 16.4478C77.0031 16.4478 77.881 17.3425 77.881 18.4352C77.881 18.9859 77.6594 19.4763 77.3099 19.8376C76.952 20.199 76.4576 20.4227 75.9206 20.4227C74.8296 20.4227 73.9517 19.5279 73.9517 18.4352C73.9517 17.3425 74.8296 16.4478 75.9206 16.4478ZM69.2127 19.2698H72.4005C72.7329 20.6808 73.875 21.7734 75.2984 22.023C75.861 26.884 77.506 30.9192 79.7476 33.3626C73.858 31.3149 69.5537 25.8172 69.2127 19.2698ZM83.9923 34.137C80.6085 33.4228 77.7191 28.4585 76.952 21.9197C78.1793 21.5411 79.1339 20.5431 79.4323 19.2698H83.9923V34.137ZM83.9923 17.6007H79.4323C79.1339 16.3273 78.1793 15.3293 76.952 14.9507C77.7191 8.41192 80.6085 3.44759 83.9923 2.74209V17.6007ZM100.417 17.6007H97.229C96.9051 16.1897 95.763 15.097 94.3311 14.8475C93.7771 9.98639 92.1321 5.95126 89.8904 3.51642C95.7801 5.55549 100.076 11.0533 100.417 17.6007ZM95.6778 18.4352C95.6778 19.5279 94.7999 20.4227 93.7174 20.4227C92.6349 20.4227 91.7485 19.5279 91.7485 18.4352C91.7485 17.8846 91.9701 17.3942 92.3281 17.0328C92.6861 16.6715 93.1804 16.4478 93.7174 16.4478C94.7999 16.4478 95.6778 17.3425 95.6778 18.4352ZM85.6458 2.74209C89.021 3.44759 91.9105 8.42052 92.6776 14.9507C91.4502 15.3293 90.4956 16.3273 90.1973 17.6007H85.6458V2.74209ZM85.6458 34.137V19.2698H90.1973C90.4956 20.5431 91.4502 21.5411 92.6776 21.9197C91.9105 28.4585 89.021 33.4228 85.6458 34.137ZM94.8169 30.5578C93.3424 31.7967 91.6718 32.7432 89.8904 33.3626C92.1321 30.9192 93.7771 26.884 94.3311 22.023C95.763 21.7734 96.8966 20.6808 97.229 19.2698H100.434C100.332 21.3175 99.8287 23.3307 98.9593 25.1633C98.6183 25.0601 98.2604 24.9826 97.8853 24.9826C95.8909 24.9826 94.2629 26.6173 94.2629 28.6306C94.2629 29.3447 94.476 29.9986 94.8169 30.5578ZM97.8853 30.618C96.8029 30.618 95.9164 29.7319 95.9164 28.6306C95.9164 27.5379 96.8029 26.6517 97.8853 26.6517C98.9678 26.6517 99.8542 27.5379 99.8542 28.6306C99.8542 29.7319 98.9678 30.618 97.8853 30.618Z" fill="#007988"/>
<path d="M7.22004 45.4095C7.97537 44.9814 8.47892 44.1992 8.47892 43.1365C8.47892 41.4983 7.22004 40.4504 4.87014 40.4504H0.282227V50.7818H5.14989C7.66764 50.7818 8.98247 49.7487 8.98247 47.9776C8.98247 46.6345 8.26911 45.7637 7.22004 45.4095ZM4.67431 41.9558C5.93319 41.9558 6.64655 42.4281 6.64655 43.3874C6.64655 44.332 5.93319 44.8043 4.67431 44.8043H2.10061V41.9558H4.67431ZM5.03799 49.2764H2.10061V46.295H5.03799C6.40876 46.295 7.1501 46.7526 7.1501 47.7857C7.1501 48.8188 6.40876 49.2764 5.03799 49.2764Z" fill="#00A9BE"/>
<path d="M17.777 46.8854C17.777 44.4206 16.1824 42.8118 14.0004 42.8118C11.7764 42.8118 10.1398 44.4944 10.1398 46.8411C10.1398 49.1878 11.7624 50.8851 14.2661 50.8851C15.553 50.8851 16.6021 50.4424 17.2735 49.6011L16.3363 48.4646C15.8048 49.0402 15.1474 49.3207 14.3081 49.3207C13.0073 49.3207 12.0981 48.5827 11.8883 47.4315H17.749C17.763 47.2544 17.777 47.033 17.777 46.8854ZM14.0004 44.2878C15.1474 44.2878 15.9726 45.07 16.1125 46.2065H11.8743C12.0421 45.0552 12.8674 44.2878 14.0004 44.2878Z" fill="#00A9BE"/>
<path d="M27.4625 42.8118C26.4414 42.8118 25.5742 43.1808 24.9867 43.9335V42.9004H23.3222V53.6451H25.0706V49.8225C25.6721 50.5457 26.5114 50.8851 27.4625 50.8851C29.6446 50.8851 31.2531 49.2911 31.2531 46.8411C31.2531 44.4058 29.6446 42.8118 27.4625 42.8118ZM27.2667 49.3059C26.0078 49.3059 25.0427 48.3465 25.0427 46.8411C25.0427 45.3357 26.0078 44.3763 27.2667 44.3763C28.5256 44.3763 29.4767 45.3357 29.4767 46.8411C29.4767 48.3465 28.5256 49.3059 27.2667 49.3059Z" fill="#00A9BE"/>
<path d="M35.6691 42.8118C34.4662 42.8118 33.3052 43.1365 32.508 43.7859L33.1934 45.129C33.7529 44.642 34.6201 44.3468 35.4593 44.3468C36.7042 44.3468 37.3197 44.9814 37.3197 46.0589V46.1769H35.3894C33.1234 46.1769 32.2842 47.2101 32.2842 48.5237C32.2842 49.8963 33.3612 50.8851 35.0677 50.8851C36.1867 50.8851 36.998 50.5014 37.4176 49.8225V50.7818H39.0681V46.1622C39.0681 43.8893 37.8232 42.8118 35.6691 42.8118ZM35.4314 49.542C34.5362 49.542 34.0046 49.114 34.0046 48.4499C34.0046 47.8743 34.3263 47.402 35.5153 47.402H37.3197V48.317C37.0259 49.1288 36.2846 49.542 35.4314 49.542Z" fill="#00A9BE"/>
<path d="M42.9765 44.0516V42.9004H41.312V50.7818H43.0605V46.9592C43.0605 45.3504 43.8997 44.5239 45.2285 44.5239C45.3544 44.5239 45.4803 44.5387 45.6342 44.5682V42.8118C44.3893 42.8118 43.4801 43.2251 42.9765 44.0516Z" fill="#00A9BE"/>
<path d="M51.391 49.0402C51.1253 49.2616 50.7756 49.3649 50.4119 49.3649C49.7405 49.3649 49.3768 48.9517 49.3768 48.1842V44.4354H51.377V42.9594H49.3768V41.1588H47.6284V42.9594H46.3975V44.4354H47.6284V48.2285C47.6284 49.9701 48.5655 50.8851 50.2021 50.8851C50.8315 50.8851 51.461 50.708 51.8806 50.3538L51.391 49.0402Z" fill="#00A9BE"/>
<path d="M60.5416 50.8851C62.8635 50.8851 64.528 49.2026 64.528 46.8411C64.528 44.4796 62.8635 42.8118 60.5416 42.8118C58.2476 42.8118 56.5691 44.4796 56.5691 46.8411C56.5691 49.2026 58.2476 50.8851 60.5416 50.8851ZM60.5416 49.3059C59.2827 49.3059 58.3316 48.3465 58.3316 46.8411C58.3316 45.3357 59.2827 44.3763 60.5416 44.3763C61.8145 44.3763 62.7656 45.3357 62.7656 46.8411C62.7656 48.3465 61.8145 49.3059 60.5416 49.3059Z" fill="#00A9BE"/>
<path d="M69.2353 41.2178C69.599 41.2178 69.9347 41.3507 70.2004 41.5425L70.69 40.1552C70.2983 39.86 69.7109 39.7272 69.1094 39.7272C67.3749 39.7272 66.4378 40.8046 66.4378 42.4576V42.9594H65.2069V44.4354H66.4378V50.7818H68.1862V44.4354H70.1864V42.9594H68.1303V42.4871C68.1303 41.6459 68.5079 41.2178 69.2353 41.2178Z" fill="#00A9BE"/>
<path d="M78.0825 42.8118C76.8796 42.8118 75.7186 43.1365 74.9213 43.7859L75.6067 45.129C76.1662 44.642 77.0334 44.3468 77.8727 44.3468C79.1176 44.3468 79.733 44.9814 79.733 46.0589V46.1769H77.8027C75.5368 46.1769 74.6975 47.2101 74.6975 48.5237C74.6975 49.8963 75.7746 50.8851 77.481 50.8851C78.6 50.8851 79.4113 50.5014 79.8309 49.8225V50.7818H81.4815V46.1622C81.4815 43.8893 80.2366 42.8118 78.0825 42.8118ZM77.8447 49.542C76.9495 49.542 76.418 49.114 76.418 48.4499C76.418 47.8743 76.7397 47.402 77.9286 47.402H79.733V48.317C79.4393 49.1288 78.6979 49.542 77.8447 49.542Z" fill="#00A9BE"/>
<path d="M91.018 50.8851C92.4727 50.8851 93.6337 50.221 94.2072 49.0402L92.8644 48.2137C92.4168 48.9664 91.7454 49.3059 91.004 49.3059C89.7172 49.3059 88.7381 48.3761 88.7381 46.8411C88.7381 45.3209 89.7172 44.3763 91.004 44.3763C91.7454 44.3763 92.4168 44.7158 92.8644 45.4685L94.2072 44.642C93.6337 43.4465 92.4727 42.8118 91.018 42.8118C88.6541 42.8118 86.9756 44.4796 86.9756 46.8411C86.9756 49.2026 88.6541 50.8851 91.018 50.8851Z" fill="#00A9BE"/>
<path d="M98.9663 50.8851C101.288 50.8851 102.953 49.2026 102.953 46.8411C102.953 44.4796 101.288 42.8118 98.9663 42.8118C96.6724 42.8118 94.9939 44.4796 94.9939 46.8411C94.9939 49.2026 96.6724 50.8851 98.9663 50.8851ZM98.9663 49.3059C97.7074 49.3059 96.7563 48.3465 96.7563 46.8411C96.7563 45.3357 97.7074 44.3763 98.9663 44.3763C100.239 44.3763 101.19 45.3357 101.19 46.8411C101.19 48.3465 100.239 49.3059 98.9663 49.3059Z" fill="#00A9BE"/>
<path d="M114.052 42.8118C112.863 42.8118 111.856 43.3137 111.255 44.1254C110.737 43.2399 109.828 42.8118 108.737 42.8118C107.716 42.8118 106.849 43.1956 106.289 43.904V42.9004H104.625V50.7818H106.373V46.7821C106.373 45.2176 107.156 44.4206 108.317 44.4206C109.38 44.4206 109.996 45.0995 109.996 46.5016V50.7818H111.744V46.7821C111.744 45.2176 112.542 44.4206 113.689 44.4206C114.752 44.4206 115.367 45.0995 115.367 46.5016V50.7818H117.116V46.2655C117.116 43.8893 115.857 42.8118 114.052 42.8118Z" fill="#00A9BE"/>
<path d="M128.777 42.8118C127.589 42.8118 126.581 43.3137 125.98 44.1254C125.462 43.2399 124.553 42.8118 123.462 42.8118C122.441 42.8118 121.574 43.1956 121.014 43.904V42.9004H119.35V50.7818H121.098V46.7821C121.098 45.2176 121.882 44.4206 123.043 44.4206C124.106 44.4206 124.721 45.0995 124.721 46.5016V50.7818H126.47V46.7821C126.47 45.2176 127.267 44.4206 128.414 44.4206C129.477 44.4206 130.092 45.0995 130.092 46.5016V50.7818H131.841V46.2655C131.841 43.8893 130.582 42.8118 128.777 42.8118Z" fill="#00A9BE"/>
<path d="M139.558 42.9004V46.8854C139.558 48.4646 138.733 49.2616 137.516 49.2616C136.411 49.2616 135.768 48.5827 135.768 47.1511V42.9004H134.019V47.402C134.019 49.7782 135.32 50.8851 137.236 50.8851C138.201 50.8851 139.083 50.5014 139.642 49.7782V50.7818H141.307V42.9004H139.558Z" fill="#00A9BE"/>
<path d="M147.834 42.8118C146.743 42.8118 145.834 43.1956 145.26 43.9188V42.9004H143.596V50.7818H145.344V46.7968C145.344 45.2176 146.184 44.4206 147.428 44.4206C148.547 44.4206 149.205 45.0995 149.205 46.5016V50.7818H150.953V46.2655C150.953 43.8893 149.624 42.8118 147.834 42.8118Z" fill="#00A9BE"/>
<path d="M154.052 41.6016C154.71 41.6016 155.171 41.0998 155.171 40.4504C155.171 39.8452 154.696 39.3877 154.052 39.3877C153.409 39.3877 152.933 39.8747 152.933 40.4946C152.933 41.1145 153.409 41.6016 154.052 41.6016ZM153.171 50.7818H154.92V42.9004H153.171V50.7818Z" fill="#00A9BE"/>
<path d="M161.215 49.0402C160.949 49.2616 160.6 49.3649 160.236 49.3649C159.564 49.3649 159.201 48.9517 159.201 48.1842V44.4354H161.201V42.9594H159.201V41.1588H157.452V42.9594H156.221V44.4354H157.452V48.2285C157.452 49.9701 158.389 50.8851 160.026 50.8851C160.655 50.8851 161.285 50.708 161.705 50.3538L161.215 49.0402Z" fill="#00A9BE"/>
<path d="M168.322 42.9004L165.958 48.7303L163.608 42.9004H161.789L165.048 50.8113L164.923 51.1213C164.587 51.9035 164.223 52.2135 163.608 52.2135C163.132 52.2135 162.657 52.0068 162.321 51.6674L161.621 53.0252C162.097 53.4828 162.88 53.7484 163.622 53.7484C164.867 53.7484 165.818 53.2023 166.503 51.4165L170 42.9004H168.322Z" fill="#00A9BE"/>
</svg>
