<svg width="26" height="26" viewBox="0 0 26 26" fill="none" xmlns="http://www.w3.org/2000/svg">
<path d="M19.9419 4.49797C19.6333 4.49797 19.3317 4.58946 19.0752 4.76088C18.8186 4.93229 18.6187 5.17593 18.5006 5.46098C18.3826 5.74603 18.3517 6.05969 18.4119 6.3623C18.472 6.66491 18.6206 6.94287 18.8388 7.16104C19.057 7.37921 19.3349 7.52778 19.6375 7.58797C19.9401 7.64817 20.2538 7.61727 20.5389 7.4992C20.8239 7.38113 21.0675 7.18118 21.239 6.92464C21.4104 6.6681 21.5019 6.3665 21.5019 6.05796C21.5019 5.64422 21.3375 5.24744 21.0449 4.95488C20.7524 4.66233 20.3556 4.49797 19.9419 4.49797ZM25.9218 7.64395C25.8965 6.56534 25.6945 5.49819 25.3238 4.48497C24.9933 3.61805 24.4788 2.83304 23.8158 2.18399C23.1721 1.51764 22.3853 1.00642 21.5149 0.688995C20.5043 0.307007 19.436 0.100372 18.3559 0.0779994C16.9779 -7.26427e-08 16.5359 0 12.9999 0C9.46394 0 9.02194 -7.26427e-08 7.64395 0.0779994C6.56385 0.100372 5.49551 0.307007 4.48497 0.688995C3.61616 1.00964 2.83 1.52042 2.18399 2.18399C1.51764 2.82771 1.00642 3.61455 0.688995 4.48497C0.307007 5.49551 0.100372 6.56385 0.0779994 7.64395C-7.26427e-08 9.02194 0 9.46394 0 12.9999C0 16.5359 -7.26427e-08 16.9779 0.0779994 18.3559C0.100372 19.436 0.307007 20.5043 0.688995 21.5149C1.00642 22.3853 1.51764 23.1721 2.18399 23.8158C2.83 24.4794 3.61616 24.9902 4.48497 25.3108C5.49551 25.6928 6.56385 25.8995 7.64395 25.9218C9.02194 25.9998 9.46394 25.9998 12.9999 25.9998C16.5359 25.9998 16.9779 25.9998 18.3559 25.9218C19.436 25.8995 20.5043 25.6928 21.5149 25.3108C22.3853 24.9934 23.1721 24.4822 23.8158 23.8158C24.4818 23.1692 24.9967 22.3835 25.3238 21.5149C25.6945 20.5016 25.8965 19.4345 25.9218 18.3559C25.9218 16.9779 25.9998 16.5359 25.9998 12.9999C25.9998 9.46394 25.9998 9.02194 25.9218 7.64395ZM23.5818 18.1999C23.5724 19.0251 23.4229 19.8427 23.1398 20.6179C22.9323 21.1836 22.5989 21.6948 22.1649 22.1129C21.7432 22.5425 21.2331 22.8752 20.6699 23.0878C19.8947 23.3709 19.0771 23.5204 18.2519 23.5298C16.9519 23.5948 16.4709 23.6078 13.0519 23.6078C9.63294 23.6078 9.15194 23.6078 7.85195 23.5298C6.99511 23.5459 6.14193 23.414 5.32996 23.1398C4.79148 22.9163 4.30473 22.5845 3.89997 22.1649C3.46849 21.7472 3.13928 21.2356 2.93798 20.6699C2.6206 19.8836 2.44456 19.0474 2.41798 18.1999C2.41798 16.8999 2.33998 16.4189 2.33998 12.9999C2.33998 9.58094 2.33998 9.09994 2.41798 7.79995C2.42381 6.95633 2.57782 6.12029 2.87298 5.32996C3.10184 4.78125 3.45312 4.29213 3.89997 3.89997C4.29493 3.453 4.78304 3.098 5.32996 2.85998C6.12238 2.57404 6.95755 2.42459 7.79995 2.41798C9.09994 2.41798 9.58094 2.33998 12.9999 2.33998C16.4189 2.33998 16.8999 2.33998 18.1999 2.41798C19.0251 2.42745 19.8427 2.5769 20.6179 2.85998C21.2086 3.07923 21.7388 3.43568 22.1649 3.89997C22.5909 4.2993 22.9237 4.78752 23.1398 5.32996C23.4288 6.12157 23.5783 6.95727 23.5818 7.79995C23.6468 9.09994 23.6598 9.58094 23.6598 12.9999C23.6598 16.4189 23.6468 16.8999 23.5818 18.1999ZM12.9999 6.33096C11.6815 6.33353 10.3934 6.72684 9.29839 7.46119C8.2034 8.19555 7.35064 9.23799 6.84788 10.4568C6.34511 11.6756 6.2149 13.0161 6.47369 14.3089C6.73248 15.6017 7.36866 16.7888 8.30184 17.7202C9.23503 18.6515 10.4233 19.2854 11.7166 19.5417C13.0099 19.7979 14.3502 19.6651 15.568 19.16C16.7858 18.6548 17.8266 17.8001 18.5588 16.7036C19.2911 15.6072 19.6819 14.3184 19.6819 12.9999C19.6836 12.1226 19.5118 11.2535 19.1765 10.4428C18.8411 9.63203 18.3488 8.89559 17.7278 8.27581C17.1068 7.65603 16.3694 7.16513 15.558 6.83136C14.7466 6.49759 13.8773 6.32753 12.9999 6.33096ZM12.9999 17.3289C12.1437 17.3289 11.3068 17.075 10.5949 16.5993C9.88297 16.1236 9.32812 15.4476 9.00047 14.6565C8.67282 13.8655 8.58709 12.9951 8.75412 12.1554C8.92116 11.3156 9.33345 10.5443 9.93887 9.93887C10.5443 9.33345 11.3156 8.92116 12.1554 8.75412C12.9951 8.58709 13.8655 8.67282 14.6565 9.00047C15.4476 9.32812 16.1236 9.88297 16.5993 10.5949C17.075 11.3068 17.3289 12.1437 17.3289 12.9999C17.3289 13.5684 17.2169 14.1313 16.9994 14.6565C16.7818 15.1818 16.4629 15.659 16.061 16.061C15.659 16.4629 15.1818 16.7818 14.6565 16.9994C14.1313 17.2169 13.5684 17.3289 12.9999 17.3289Z" fill="#00A9BE"/>
</svg>
