<svg width="33" height="26" viewBox="0 0 33 26" fill="none" xmlns="http://www.w3.org/2000/svg">
<path d="M32.1994 12.0003C32.1994 9.7944 30.4355 8.00046 28.2666 8.00046C27.3994 8.00046 26.5755 8.28845 25.903 8.81043C23.7085 7.26049 20.8337 6.33652 17.776 6.10253L19.4258 2.16667L24.2257 3.30663C24.3791 4.81657 25.6218 6.00053 27.1458 6.00053C28.772 6.00053 30.0954 4.65458 30.0954 3.00064C30.0954 1.3467 28.772 0.000744195 27.1458 0.000744195C26.1154 0.000744195 25.2089 0.542725 24.6819 1.3607L19.0718 0.0267433C18.8461 -0.027433 18.6089 0.00126 18.402 0.107753C18.1951 0.214246 18.0319 0.391686 17.9411 0.608723L15.6601 6.04853C12.3586 6.16453 9.21237 7.11049 6.83698 8.75844C6.24946 8.32808 5.55663 8.07085 4.83467 8.01504C4.11272 7.95923 3.38962 8.107 2.74489 8.44209C2.10016 8.77719 1.55879 9.28664 1.18031 9.9144C0.801824 10.5422 0.600895 11.2639 0.599619 12.0003C0.598109 12.7051 0.78156 13.3975 1.13103 14.006C1.48051 14.6146 1.98334 15.1173 2.58763 15.4622C2.57245 15.6411 2.56523 15.8206 2.566 16.0002C2.566 21.514 8.74044 25.9998 16.3307 25.9998C23.9189 25.9998 30.0954 21.514 30.0954 16.0002C30.0954 15.8442 30.0895 15.6902 30.0796 15.5362C30.7194 15.2032 31.2561 14.6966 31.6302 14.0726C32.0043 13.4485 32.2013 12.7313 32.1994 12.0003ZM27.1458 2.00067C27.4071 2.0012 27.6574 2.10728 27.8418 2.29556C28.0262 2.48384 28.1295 2.7389 28.129 3.00464C28.1285 3.27038 28.0242 3.52502 27.839 3.71255C27.6539 3.90008 27.4031 4.00513 27.1418 4.0046C27.0125 4.00434 26.8844 3.97816 26.765 3.92757C26.6456 3.87697 26.5371 3.80295 26.4458 3.70972C26.3545 3.61649 26.2822 3.50589 26.2329 3.38423C26.1836 3.26256 26.1584 3.13222 26.1587 3.00064C26.1589 2.86906 26.1847 2.73882 26.2344 2.61736C26.2841 2.49589 26.3569 2.38558 26.4486 2.29273C26.5403 2.19987 26.649 2.12629 26.7686 2.07618C26.8883 2.02607 27.0164 2.00041 27.1458 2.00067ZM9.44834 15.0002C9.44834 13.8983 10.3312 13.0003 11.4147 13.0003C12.4982 13.0003 13.3811 13.8983 13.3811 15.0002C13.3585 15.5152 13.1414 16.0014 12.7751 16.3576C12.4088 16.7139 11.9215 16.9127 11.4147 16.9127C10.9079 16.9127 10.4206 16.7139 10.0543 16.3576C9.68806 16.0014 9.47099 15.5152 9.44834 15.0002ZM20.8711 21.634C19.5504 22.6069 17.9614 23.1308 16.3307 23.1308C14.7 23.1308 13.1109 22.6069 11.7903 21.634C11.6825 21.5583 11.5906 21.4616 11.5201 21.3493C11.4496 21.2371 11.4018 21.1116 11.3796 20.9804C11.3574 20.8491 11.3612 20.7146 11.3908 20.5848C11.4204 20.4551 11.4752 20.3326 11.552 20.2247C11.6288 20.1168 11.7259 20.0256 11.8379 19.9564C11.9498 19.8872 12.0742 19.8414 12.2037 19.8218C12.3333 19.8022 12.4653 19.8091 12.5922 19.8421C12.7191 19.8751 12.8382 19.9336 12.9426 20.014C13.9276 20.7413 15.1135 21.1329 16.3307 21.1329C17.5478 21.1329 18.7338 20.7413 19.7188 20.014C19.8231 19.9336 19.9422 19.8751 20.0691 19.8421C20.196 19.8091 20.3281 19.8022 20.4577 19.8218C20.5872 19.8414 20.7116 19.8872 20.8235 19.9564C20.9354 20.0256 21.0326 20.1168 21.1094 20.2247C21.1861 20.3326 21.2409 20.4551 21.2705 20.5848C21.3001 20.7146 21.304 20.8491 21.2818 20.9804C21.2596 21.1116 21.2118 21.2371 21.1413 21.3493C21.0707 21.4616 20.9789 21.5583 20.8711 21.634ZM21.2466 17.0001C20.7251 17.0001 20.225 16.7894 19.8562 16.4144C19.4874 16.0393 19.2803 15.5306 19.2803 15.0002C19.2803 14.4698 19.4874 13.9611 19.8562 13.5861C20.225 13.211 20.7251 13.0003 21.2466 13.0003C21.7682 13.0003 22.2683 13.211 22.6371 13.5861C23.0058 13.9611 23.213 14.4698 23.213 15.0002C23.213 15.5306 23.0058 16.0393 22.6371 16.4144C22.2683 16.7894 21.7682 17.0001 21.2466 17.0001Z" fill="#00A9BE"/>
</svg>
