<svg width="164" height="52" viewBox="0 0 164 52" fill="none" xmlns="http://www.w3.org/2000/svg">
<path d="M9.03761 51.6479L6.78267 48.3841C8.11323 47.859 8.86954 46.7522 8.86954 45.248C8.86954 43.0485 7.27287 41.7146 4.6958 41.7146H0.662109V51.6479H2.48287V48.753H4.6958C4.82185 48.753 4.9479 48.753 5.07395 48.7389L7.07679 51.6479H9.03761ZM7.03477 45.248C7.03477 46.4968 6.20843 47.2347 4.61176 47.2347H2.48287V43.2755H4.61176C6.20843 43.2755 7.03477 43.9992 7.03477 45.248Z" fill="#00A9BE"/>
<path d="M17.7695 47.9016C17.7695 45.5318 16.1728 43.9851 13.9879 43.9851C11.761 43.9851 10.1223 45.6028 10.1223 47.859C10.1223 50.1153 11.747 51.7472 14.254 51.7472C15.5426 51.7472 16.593 51.3215 17.2653 50.5127L16.3269 49.42C15.7947 49.9734 15.1364 50.243 14.296 50.243C12.9935 50.243 12.0831 49.5335 11.873 48.4267H17.7415C17.7555 48.2564 17.7695 48.0435 17.7695 47.9016ZM13.9879 45.4041C15.1364 45.4041 15.9627 46.1562 16.1028 47.2489H11.859C12.0271 46.142 12.8534 45.4041 13.9879 45.4041Z" fill="#00A9BE"/>
<path d="M22.8826 51.7472C24.3392 51.7472 25.5017 51.1087 26.076 49.9734L24.7314 49.1788C24.2832 49.9025 23.6109 50.2289 22.8686 50.2289C21.5801 50.2289 20.5997 49.3349 20.5997 47.859C20.5997 46.3974 21.5801 45.4892 22.8686 45.4892C23.6109 45.4892 24.2832 45.8156 24.7314 46.5393L26.076 45.7447C25.5017 44.5952 24.3392 43.9851 22.8826 43.9851C20.5156 43.9851 18.8349 45.5886 18.8349 47.859C18.8349 50.1295 20.5156 51.7472 22.8826 51.7472Z" fill="#00A9BE"/>
<path d="M34.5109 47.9016C34.5109 45.5318 32.9142 43.9851 30.7293 43.9851C28.5024 43.9851 26.8637 45.6028 26.8637 47.859C26.8637 50.1153 28.4884 51.7472 30.9954 51.7472C32.2839 51.7472 33.3344 51.3215 34.0067 50.5127L33.0683 49.42C32.536 49.9734 31.8778 50.243 31.0374 50.243C29.7349 50.243 28.8245 49.5335 28.6144 48.4267H34.4829C34.4969 48.2564 34.5109 48.0435 34.5109 47.9016ZM30.7293 45.4041C31.8778 45.4041 32.7041 46.1562 32.8442 47.2489H28.6004C28.7685 46.142 29.5948 45.4041 30.7293 45.4041Z" fill="#00A9BE"/>
<path d="M37.0749 42.8214C37.7332 42.8214 38.1954 42.339 38.1954 41.7146C38.1954 41.1328 37.7192 40.6929 37.0749 40.6929C36.4307 40.6929 35.9545 41.1612 35.9545 41.7572C35.9545 42.3532 36.4307 42.8214 37.0749 42.8214ZM36.1926 51.6479H37.9433V44.0702H36.1926V51.6479Z" fill="#00A9BE"/>
<path d="M45.5634 44.0702L43.1684 49.6896L40.8434 44.0702H39.0226L42.23 51.6479H44.0367L47.2441 44.0702H45.5634Z" fill="#00A9BE"/>
<path d="M55.164 47.9016C55.164 45.5318 53.5674 43.9851 51.3825 43.9851C49.1555 43.9851 47.5168 45.6028 47.5168 47.859C47.5168 50.1153 49.1415 51.7472 51.6486 51.7472C52.9371 51.7472 53.9875 51.3215 54.6598 50.5127L53.7214 49.42C53.1892 49.9734 52.5309 50.243 51.6906 50.243C50.388 50.243 49.4777 49.5335 49.2676 48.4267H55.136C55.15 48.2564 55.164 48.0435 55.164 47.9016ZM51.3825 45.4041C52.5309 45.4041 53.3573 46.1562 53.4973 47.2489H49.2536C49.4216 46.142 50.248 45.4041 51.3825 45.4041Z" fill="#00A9BE"/>
<path d="M67.8315 46.4826C68.5878 46.0711 69.092 45.319 69.092 44.2972C69.092 42.7221 67.8315 41.7146 65.4785 41.7146H60.8846V51.6479H65.7586C68.2796 51.6479 69.5962 50.6546 69.5962 48.9517C69.5962 47.6604 68.8819 46.8231 67.8315 46.4826ZM65.2824 43.162C66.5429 43.162 67.2572 43.6161 67.2572 44.5385C67.2572 45.4467 66.5429 45.9008 65.2824 45.9008H62.7053V43.162H65.2824ZM65.6465 50.2005H62.7053V47.334H65.6465C67.0191 47.334 67.7614 47.7739 67.7614 48.7672C67.7614 49.7606 67.0191 50.2005 65.6465 50.2005Z" fill="#00A9BE"/>
<path d="M75.7552 51.7898C78.4303 51.7898 80.041 50.2147 80.041 47.3198V41.7146H78.2482V47.2489C78.2482 49.2923 77.3518 50.1721 75.7692 50.1721C74.1865 50.1721 73.2761 49.2923 73.2761 47.2489V41.7146H71.4554V47.3198C71.4554 50.2147 73.066 51.7898 75.7552 51.7898Z" fill="#00A9BE"/>
<path d="M85.6302 51.7898C88.3193 51.7898 89.5938 50.4275 89.5938 48.8382C89.5938 45.1912 83.7814 46.5677 83.7814 44.4533C83.7814 43.7012 84.3977 43.1052 85.9103 43.1052C86.7646 43.1052 87.731 43.3607 88.6134 43.8857L89.1877 42.4525C88.3333 41.8849 87.1008 41.5727 85.9243 41.5727C83.2352 41.5727 81.9746 42.935 81.9746 44.5385C81.9746 48.228 87.8011 46.8231 87.8011 48.9659C87.8011 49.7038 87.1568 50.2572 85.6302 50.2572C84.4257 50.2572 83.1791 49.8031 82.3948 49.1646L81.7645 50.5978C82.5769 51.3073 84.1035 51.7898 85.6302 51.7898Z" fill="#00A9BE"/>
<path d="M91.3993 51.6479H95.6851C98.8644 51.6479 101.035 49.6612 101.035 46.6812C101.035 43.7012 98.8644 41.7146 95.6851 41.7146H91.3993V51.6479ZM93.22 50.0869V43.2755H95.601C97.7859 43.2755 99.2005 44.6236 99.2005 46.6812C99.2005 48.7389 97.7859 50.0869 95.601 50.0869H93.22Z" fill="#00A9BE"/>
<path d="M108.34 45.1771V44.0702H106.673V51.6479H108.424V47.9726C108.424 46.4258 109.264 45.6311 110.595 45.6311C110.721 45.6311 110.847 45.6453 111.001 45.6737V43.9851C109.754 43.9851 108.844 44.3824 108.34 45.1771Z" fill="#00A9BE"/>
<path d="M119.449 47.9016C119.449 45.5318 117.852 43.9851 115.667 43.9851C113.44 43.9851 111.802 45.6028 111.802 47.859C111.802 50.1153 113.426 51.7472 115.933 51.7472C117.222 51.7472 118.272 51.3215 118.945 50.5127L118.006 49.42C117.474 49.9734 116.816 50.243 115.975 50.243C114.673 50.243 113.762 49.5335 113.552 48.4267H119.421C119.435 48.2564 119.449 48.0435 119.449 47.9016ZM115.667 45.4041C116.816 45.4041 117.642 46.1562 117.782 47.2489H113.538C113.706 46.142 114.533 45.4041 115.667 45.4041Z" fill="#00A9BE"/>
<path d="M131.106 44.0702L129.075 49.6896L127.058 44.0702H125.588L123.529 49.6612L121.554 44.0702H119.901L122.646 51.6479H124.327L126.288 46.4258L128.221 51.6479H129.901L132.661 44.0702H131.106Z" fill="#00A9BE"/>
<path d="M136.489 43.9851C135.284 43.9851 134.122 44.2972 133.324 44.9216L134.01 46.213C134.57 45.7447 135.438 45.4609 136.279 45.4609C137.525 45.4609 138.142 46.0711 138.142 47.107V47.2205H136.209C133.94 47.2205 133.1 48.2138 133.1 49.4768C133.1 50.7965 134.178 51.7472 135.887 51.7472C137.007 51.7472 137.819 51.3783 138.24 50.7255V51.6479H139.892V47.2063C139.892 45.021 138.646 43.9851 136.489 43.9851ZM136.251 50.4559C135.354 50.4559 134.822 50.0444 134.822 49.4058C134.822 48.8524 135.144 48.3983 136.335 48.3983H138.142V49.2781C137.848 50.0586 137.105 50.4559 136.251 50.4559Z" fill="#00A9BE"/>
<path d="M143.806 45.1771V44.0702H142.139V51.6479H143.89V47.9726C143.89 46.4258 144.73 45.6311 146.061 45.6311C146.187 45.6311 146.313 45.6453 146.467 45.6737V43.9851C145.22 43.9851 144.31 44.3824 143.806 45.1771Z" fill="#00A9BE"/>
<path d="M153.458 41.1186V45.0068C152.87 44.3114 152.016 43.9851 151.049 43.9851C148.878 43.9851 147.268 45.5034 147.268 47.859C147.268 50.2147 148.878 51.7472 151.049 51.7472C152.072 51.7472 152.94 51.3925 153.528 50.6688V51.6479H155.209V41.1186H153.458ZM151.259 50.2289C149.999 50.2289 149.032 49.3065 149.032 47.859C149.032 46.4116 149.999 45.4892 151.259 45.4892C152.52 45.4892 153.486 46.4116 153.486 47.859C153.486 49.3065 152.52 50.2289 151.259 50.2289Z" fill="#00A9BE"/>
<path d="M159.81 51.7472C161.911 51.7472 163.2 50.8249 163.2 49.4058C163.2 46.44 158.578 47.8023 158.578 46.2697C158.578 45.7731 159.082 45.4183 160.146 45.4183C160.861 45.4183 161.575 45.5602 162.289 45.9859L162.961 44.6378C162.289 44.2263 161.155 43.9851 160.16 43.9851C158.143 43.9851 156.869 44.9216 156.869 46.3549C156.869 49.3774 161.491 48.0151 161.491 49.4626C161.491 49.9876 161.029 50.2998 159.922 50.2998C158.984 50.2998 157.975 49.9876 157.317 49.5477L156.645 50.8958C157.317 51.3783 158.564 51.7472 159.81 51.7472Z" fill="#00A9BE"/>
<path fill-rule="evenodd" clip-rule="evenodd" d="M84.3488 1.15352C86.228 -0.141738 88.8707 0.0305263 90.187 1.84482C91.5035 3.65929 90.7795 6.14364 88.8996 7.42692L88.8994 7.427C88.6723 7.58201 88.4342 7.72131 88.1869 7.84388C88.0619 7.90587 87.9235 7.93814 87.7831 7.93802L81.6177 7.93281C81.3259 7.93256 81.0529 7.79282 80.8875 7.55906C80.722 7.3253 80.6854 7.02741 80.7895 6.76233C81.6409 4.59386 82.5245 2.411 84.3488 1.15352ZM88.7368 2.8395C88.1017 1.96407 86.6269 1.69848 85.3752 2.56125C84.3039 3.29968 83.6237 4.53043 82.9194 6.20834L87.5601 6.21227C87.6697 6.15117 87.7763 6.08523 87.8798 6.01464C89.1308 5.16074 89.3718 3.71476 88.7368 2.8395ZM67.8965 14.0081C67.8965 13.5316 68.2938 13.1453 68.7839 13.1453H93.7723C94.2624 13.1453 94.6597 13.5316 94.6597 14.0081V26.362C94.6597 27.1438 94.3402 27.8936 93.7717 28.4464C93.2031 28.9993 92.4319 29.3098 91.6278 29.3098H70.9283C70.1242 29.3098 69.3531 28.9993 68.7845 28.4464C68.2159 27.8936 67.8965 27.1438 67.8965 26.362V14.0081ZM69.6712 14.8708V26.362C69.6712 26.6862 69.8037 26.9971 70.0394 27.2263C70.2752 27.4555 70.5949 27.5843 70.9283 27.5843H91.6278C91.9612 27.5843 92.281 27.4555 92.5167 27.2263C92.7525 26.9971 92.8849 26.6862 92.8849 26.362V14.8708H69.6712Z" fill="#035D68"/>
<path fill-rule="evenodd" clip-rule="evenodd" d="M76.3828 13.7125C76.3828 13.2268 76.8018 12.833 77.3185 12.833H83.933C84.4498 12.833 84.8687 13.2268 84.8687 13.7125V28.4304C84.8687 28.9161 84.4498 29.3099 83.933 29.3099H77.3185C76.8018 29.3099 76.3828 28.9161 76.3828 28.4304V13.7125ZM78.2543 14.5919V27.551H82.9972V14.5919H78.2543Z" fill="#035D68"/>
<path fill-rule="evenodd" clip-rule="evenodd" d="M77.119 2.83969C75.9044 1.86975 74.4825 2.16689 73.8635 3.15339C73.2483 4.13372 73.4818 5.75697 74.6928 6.71799L74.6998 6.72364C74.7955 6.80125 74.8946 6.87345 74.9965 6.93998L79.4891 6.93558C78.8072 5.0485 78.1572 3.66879 77.119 2.83969ZM72.4649 2.03199C73.7417 -0.00288063 76.2875 -0.197583 78.1084 1.25659C79.8778 2.66964 80.7222 5.12586 81.5479 7.55602C81.6491 7.85388 81.6141 8.18897 81.4544 8.45203C81.2946 8.71508 81.0305 8.87239 80.7483 8.87267L74.781 8.87852C74.6461 8.87866 74.513 8.84278 74.3927 8.77382C74.1528 8.63639 73.9226 8.47852 73.704 8.30157C71.8925 6.86107 71.185 4.07169 72.4649 2.03199Z" fill="#035D68"/>
<path fill-rule="evenodd" clip-rule="evenodd" d="M69.705 8.08109C69.3122 8.08109 68.9938 8.41555 68.9938 8.82814V12.8833C68.9938 13.2959 69.3122 13.6303 69.705 13.6303H93.5028C93.8956 13.6303 94.214 13.2959 94.214 12.8833V8.82814C94.214 8.41555 93.8956 8.08109 93.5028 8.08109H69.705ZM67.2432 8.82814C67.2432 7.39996 68.3454 6.24219 69.705 6.24219H93.5028C94.8624 6.24219 95.9646 7.39996 95.9646 8.82814V12.8833C95.9646 14.3115 94.8624 15.4692 93.5028 15.4692H69.705C68.3454 15.4692 67.2432 14.3115 67.2432 12.8833V8.82814Z" fill="#035D68"/>
<path fill-rule="evenodd" clip-rule="evenodd" d="M76.3828 7.16164C76.3828 6.65384 76.7779 6.24219 77.2653 6.24219H84.639C85.1264 6.24219 85.5215 6.65384 85.5215 7.16164V14.5498C85.5215 15.0576 85.1264 15.4692 84.639 15.4692H77.2653C76.7779 15.4692 76.3828 15.0576 76.3828 14.5498V7.16164ZM78.1478 8.08109V13.6303H83.7565V8.08109H78.1478Z" fill="#035D68"/>
</svg>
