<svg width="114" height="54" viewBox="0 0 114 54" fill="none" xmlns="http://www.w3.org/2000/svg">
<path d="M53.5961 0.398548L53.6382 1.74244C54.53 1.64165 55.4191 1.67122 56.3108 1.69944L56.3529 0.355543C55.4068 0.257439 54.4662 0.342104 53.5961 0.398548ZM57.7958 0.481869L57.5827 1.7841C58.4582 1.91043 59.3133 2.11739 60.1711 2.32972L60.5105 1.02749C59.6146 0.758711 58.7188 0.604163 57.7958 0.481869ZM52.1112 0.608195C51.1814 0.784245 50.3141 1.07453 49.4386 1.40647L49.9055 2.6657C50.5014 2.38617 51.1393 2.2464 51.7719 2.07707L52.4505 1.90908L52.1112 0.608195ZM61.952 1.48979L61.3575 2.70736C62.1963 3.05005 63.065 3.49488 63.7763 3.8416L64.3694 2.62404C63.5306 2.28134 62.6619 1.83651 61.952 1.48979ZM48.1233 1.91043C47.2641 2.30822 46.3805 2.84981 45.7072 3.25432L46.3859 4.43023C47.1284 3.9088 48.0038 3.47472 48.7178 3.12665L48.1233 1.91043ZM65.6006 3.46397L64.7943 4.55521C65.5544 5.03498 66.2494 5.71096 66.8303 6.23508L67.7628 5.22716C67.1004 4.55521 66.3498 4.03512 65.6006 3.46397ZM44.4761 4.13592C43.7241 4.68288 43.097 5.34542 42.4821 6.02543L43.5002 6.95003C44.1272 6.19745 44.7136 5.72977 45.4099 5.10218L44.4761 4.13592ZM55.5046 4.34556C48.0161 4.34556 41.9311 10.3702 41.9311 17.7845C41.9311 25.1988 48.0161 31.2234 55.5046 31.2234C62.9931 31.2234 69.036 25.1988 69.036 17.7845C69.036 10.3702 62.9931 4.34556 55.5046 4.34556ZM55.5046 5.68946C62.2588 5.68946 67.7207 11.0973 67.7207 17.7845C67.7207 24.4717 62.2588 29.8795 55.5046 29.8795C48.7504 29.8795 43.2463 24.4717 43.2463 17.7845C43.2463 11.0973 48.7504 5.68946 55.5046 5.68946ZM68.8243 6.27808L67.7207 7.07367C68.3397 7.84372 68.7781 8.45519 69.3333 9.21583L70.4354 8.41891C69.8314 7.63676 69.3862 7.02932 68.8229 6.27674L68.8243 6.27808ZM41.5496 7.11802C40.9171 7.90688 40.5316 8.56942 40.0226 9.38517L41.2103 10.0988C41.6202 9.30991 42.1876 8.53851 42.6518 7.91495L41.5496 7.11802ZM71.1548 9.72114L69.9251 10.3098C70.3961 11.1484 70.6228 11.8445 70.9431 12.7019L72.2163 12.2409C71.9353 11.268 71.5702 10.5879 71.1548 9.72114ZM39.3426 10.6874C38.9992 11.5609 38.7209 12.4479 38.4508 13.3335L39.7674 13.6695C39.9412 12.796 40.3131 11.9843 40.6144 11.1484L39.3426 10.6874ZM60.1264 12.3673C60.083 12.377 60.0407 12.391 60.0001 12.4089C59.9033 12.445 59.816 12.5025 59.7449 12.5769L50.2435 21.9842C49.7263 22.4881 50.7104 23.4625 51.2194 22.9504L60.7209 13.5432C61.2027 13.1628 60.7236 12.2127 60.1264 12.3673ZM52.0705 12.4089C51.8027 12.4083 51.5374 12.4599 51.2898 12.5609C51.0422 12.6619 50.8172 12.8103 50.6276 12.9976C50.248 13.3775 50.035 13.8903 50.035 14.4248C50.035 14.9592 50.248 15.4721 50.6276 15.852C51.0114 16.2283 51.5297 16.4393 52.0698 16.4393C52.6099 16.4393 53.1282 16.2283 53.512 15.852C53.8916 15.4721 54.1046 14.9592 54.1046 14.4248C54.1046 13.8903 53.8916 13.3775 53.512 12.9976C53.3226 12.8105 53.0977 12.6622 52.8504 12.5612C52.6031 12.4602 52.338 12.4085 52.0705 12.4089ZM72.6846 13.6695L71.3707 13.8361C71.4833 14.7352 71.6299 15.6276 71.7507 16.5239L73.1081 16.3143C73.0158 15.4246 72.8461 14.5484 72.6846 13.6695ZM52.0705 13.7098C52.2415 13.7098 52.4424 13.7864 52.5795 13.9208C52.8509 14.1896 52.8509 14.6169 52.5795 14.8871C52.308 15.1558 51.8764 15.1558 51.6035 14.8871C51.3321 14.6183 51.3321 14.1909 51.6035 13.9208C51.7393 13.7864 51.8981 13.7098 52.0705 13.7098ZM38.1576 14.6774C37.9676 15.5953 37.9174 16.5145 37.8604 17.4485L39.2177 17.4902C39.2272 16.6099 39.3629 15.7498 39.515 14.8871L38.1576 14.6774ZM71.7521 18.4134C71.7385 19.3851 71.6055 20.1041 71.4548 21.0179L72.8122 21.2289C72.9655 20.3056 73.0619 19.3112 73.1094 18.4981L71.7521 18.4134ZM39.2598 18.7494L37.9024 18.8341C37.9228 19.7546 38.1169 20.6551 38.2418 21.5649L39.5991 21.3539C39.4667 20.4888 39.3535 19.6195 39.2598 18.7494ZM58.898 19.1284C58.6302 19.1277 58.3649 19.1794 58.1173 19.2804C57.8697 19.3814 57.6447 19.5298 57.4551 19.717C57.075 20.097 56.8618 20.6101 56.8618 21.1449C56.8618 21.6797 57.075 22.1928 57.4551 22.5728C57.8389 22.9491 58.3572 23.1602 58.8973 23.1602C59.4374 23.1602 59.9557 22.9491 60.3395 22.5728C60.7195 22.1928 60.9327 21.6797 60.9327 21.1449C60.9327 20.6101 60.7195 20.097 60.3395 19.717C60.15 19.5299 59.9252 19.3817 59.6779 19.2807C59.4305 19.1797 59.1655 19.1279 58.898 19.1284ZM58.898 20.4723C59.0703 20.4723 59.2278 20.5475 59.3649 20.6819C59.6364 20.9521 59.6364 21.3364 59.3649 21.6065C59.0934 21.8753 58.6618 21.8753 58.3889 21.6065C58.1175 21.3378 58.1175 20.9521 58.3889 20.6819C58.5247 20.5475 58.7256 20.4723 58.898 20.4723ZM71.1996 22.1938C70.9067 23.0185 70.5807 23.8313 70.2223 24.6303L71.4535 25.2176C71.9014 24.4059 72.1959 23.4463 72.4715 22.6561L71.1996 22.1938ZM39.9371 22.5298L38.6653 22.9921C38.9232 23.9409 39.3032 24.719 39.7254 25.5535L40.913 24.9663C40.5586 24.1658 40.2331 23.3532 39.9371 22.5298ZM69.6292 25.7645C69.2233 26.5507 68.6777 27.2442 68.1456 27.9484L69.2478 28.7453C69.8287 27.9591 70.2929 27.267 70.8169 26.4781L69.6292 25.7645ZM41.5496 26.0575L40.404 26.7725C40.8506 27.5842 41.4967 28.3717 41.9731 29.0396L43.0767 28.2413C42.493 27.5492 41.9677 26.7281 41.5496 26.0575ZM67.3814 28.8716C66.7082 29.5006 65.9575 30.1524 65.3454 30.6778L66.2792 31.6857L68.2705 29.8795L67.3814 28.8716ZM43.925 29.1243L42.9911 30.0892C43.6698 30.7343 44.4408 31.3565 45.1127 31.8954L45.919 30.8028C45.11 30.272 44.601 29.7438 43.9236 29.1229L43.925 29.1243ZM64.3274 31.3484C63.5835 31.8228 62.7908 32.1897 61.9941 32.566L62.5465 33.7836C63.4546 33.4328 64.1482 32.9933 65.006 32.4827L64.3274 31.3484ZM47.0211 31.5164L46.3004 32.6493C47.1664 33.2084 47.8803 33.5242 48.7599 33.9529L49.3544 32.734C48.5251 32.3953 47.6903 31.9155 47.0211 31.5164ZM60.8498 33.0699C59.9608 33.3078 58.9998 33.547 58.2193 33.7419L58.5586 35.0441C59.5223 34.7861 60.2607 34.6047 61.1892 34.3722L60.8498 33.0699ZM50.5 33.1546L50.1607 34.4555C51.1366 34.7404 51.8832 34.8788 52.8754 35.0441L53.0871 33.7002C52.1967 33.625 51.2601 33.3468 50.5 33.1546ZM56.9882 33.8266C56.1113 33.9139 55.2372 33.8924 54.359 33.8669L54.2748 35.2108C55.2114 35.2766 56.1371 35.2242 57.0737 35.1705L56.9882 33.8266Z" fill="#007988"/>
<path d="M3.86471 50.9294C6.55321 50.9294 7.82745 49.5125 7.82745 47.8595C7.82745 44.0664 2.01637 45.498 2.01637 43.2989C2.01637 42.5167 2.63249 41.8968 4.14477 41.8968C4.99892 41.8968 5.9651 42.1624 6.84727 42.7085L7.42137 41.2178C6.56721 40.6275 5.33499 40.3028 4.15877 40.3028C1.47027 40.3028 0.210039 41.7197 0.210039 43.3874C0.210039 47.2248 6.03512 45.7637 6.03512 47.9923C6.03512 48.7598 5.391 49.3354 3.86471 49.3354C2.66049 49.3354 1.41426 48.8631 0.630117 48.199L0 49.6896C0.81215 50.4276 2.33843 50.9294 3.86471 50.9294Z" fill="#00A9BE"/>
<path d="M16.4937 46.8854C16.4937 44.4206 14.8974 42.8118 12.713 42.8118C10.4866 42.8118 8.84832 44.4944 8.84832 46.8411C8.84832 49.1878 10.4726 50.8851 12.9791 50.8851C14.2673 50.8851 15.3175 50.4424 15.9896 49.6011L15.0515 48.4646C14.5194 49.0402 13.8613 49.3207 13.0211 49.3207C11.7189 49.3207 10.8087 48.5827 10.5986 47.4315H16.4657C16.4797 47.2544 16.4937 47.033 16.4937 46.8854ZM12.713 44.2878C13.8612 44.2878 14.6874 45.07 14.8274 46.2065H10.5846C10.7527 45.0552 11.5788 44.2878 12.713 44.2878Z" fill="#00A9BE"/>
<path d="M18.175 50.7818H19.9254V39.8305H18.175V50.7818Z" fill="#00A9BE"/>
<path d="M22.2227 50.7818H23.973V39.8305H22.2227V50.7818Z" fill="#00A9BE"/>
<path d="M32.9967 42.8118C31.7924 42.8118 30.6302 43.1365 29.8321 43.7859L30.5182 45.129C31.0783 44.642 31.9465 44.3468 32.7866 44.3468C34.0329 44.3468 34.649 44.9814 34.649 46.0589V46.1769H32.7166C30.4482 46.1769 29.608 47.2101 29.608 48.5237C29.608 49.8963 30.6862 50.8851 32.3946 50.8851C33.5148 50.8851 34.3269 50.5014 34.747 49.8225V50.7818H36.3993V46.1622C36.3993 43.8893 35.1531 42.8118 32.9967 42.8118ZM32.7586 49.542C31.8625 49.542 31.3304 49.114 31.3304 48.4499C31.3304 47.8743 31.6524 47.402 32.8426 47.402H34.649V48.317C34.3549 49.1288 33.6128 49.542 32.7586 49.542Z" fill="#00A9BE"/>
<path d="M42.6504 49.0402C42.3843 49.2616 42.0342 49.3649 41.6702 49.3649C40.9981 49.3649 40.634 48.9517 40.634 48.1842V44.4354H42.6364V42.9594H40.634V41.1588H38.8837V42.9594H37.6514V44.4354H38.8837V48.2285C38.8837 49.9701 39.8218 50.8851 41.4601 50.8851C42.0903 50.8851 42.7204 50.708 43.1404 50.3538L42.6504 49.0402Z" fill="#00A9BE"/>
<path d="M51.3067 42.8118C50.1025 42.8118 48.9403 43.1365 48.1421 43.7859L48.8282 45.129C49.3883 44.642 50.2565 44.3468 51.0966 44.3468C52.3429 44.3468 52.959 44.9814 52.959 46.0589V46.1769H51.0266C48.7582 46.1769 47.9181 47.2101 47.9181 48.5237C47.9181 49.8963 48.9963 50.8851 50.7046 50.8851C51.8248 50.8851 52.6369 50.5014 53.057 49.8225V50.7818H54.7093V46.1622C54.7093 43.8893 53.4631 42.8118 51.3067 42.8118ZM51.0686 49.542C50.1725 49.542 49.6404 49.114 49.6404 48.4499C49.6404 47.8743 49.9624 47.402 51.1527 47.402H52.959V48.317C52.6649 49.1288 51.9228 49.542 51.0686 49.542Z" fill="#00A9BE"/>
<path d="M61.1984 42.8118C60.1062 42.8118 59.1961 43.1956 58.6219 43.9188V42.9004H56.9556V50.7818H58.706V46.7968C58.706 45.2176 59.5461 44.4206 60.7924 44.4206C61.9126 44.4206 62.5707 45.0995 62.5707 46.5016V50.7818H64.321V46.2655C64.321 43.8893 62.9908 42.8118 61.1984 42.8118Z" fill="#00A9BE"/>
<path d="M71.7256 42.9004L69.3592 48.7303L67.0068 42.9004H65.1864L68.449 50.8113L68.323 51.1213C67.9869 51.9035 67.6229 52.2135 67.0068 52.2135C66.5307 52.2135 66.0546 52.0068 65.7185 51.6674L65.0184 53.0252C65.4945 53.4828 66.2786 53.7484 67.0208 53.7484C68.267 53.7484 69.2192 53.2023 69.9053 51.4165L73.406 42.9004H71.7256Z" fill="#00A9BE"/>
<path d="M82.3745 49.0402C82.1084 49.2616 81.7584 49.3649 81.3943 49.3649C80.7222 49.3649 80.3581 48.9517 80.3581 48.1842V44.4354H82.3605V42.9594H80.3581V41.1588H78.6078V42.9594H77.3756V44.4354H78.6078V48.2285C78.6078 49.9701 79.546 50.8851 81.1843 50.8851C81.8144 50.8851 82.4445 50.708 82.8646 50.3538L82.3745 49.0402Z" fill="#00A9BE"/>
<path d="M85.1866 41.6016C85.8447 41.6016 86.3068 41.0998 86.3068 40.4504C86.3068 39.8452 85.8307 39.3877 85.1866 39.3877C84.5425 39.3877 84.0664 39.8747 84.0664 40.4946C84.0664 41.1145 84.5425 41.6016 85.1866 41.6016ZM84.3045 50.7818H86.0548V42.9004H84.3045V50.7818Z" fill="#00A9BE"/>
<path d="M97.7898 42.8118C96.5996 42.8118 95.5914 43.3137 94.9893 44.1254C94.4712 43.2399 93.561 42.8118 92.4688 42.8118C91.4466 42.8118 90.5785 43.1956 90.0184 43.904V42.9004H88.3521V50.7818H90.1024V46.7821C90.1024 45.2176 90.8865 44.4206 92.0488 44.4206C93.113 44.4206 93.7291 45.0995 93.7291 46.5016V50.7818H95.4794V46.7821C95.4794 45.2176 96.2775 44.4206 97.4258 44.4206C98.4899 44.4206 99.1061 45.0995 99.1061 46.5016V50.7818H100.856V46.2655C100.856 43.8893 99.5961 42.8118 97.7898 42.8118Z" fill="#00A9BE"/>
<path d="M110.191 46.8854C110.191 44.4206 108.594 42.8118 106.41 42.8118C104.184 42.8118 102.545 44.4944 102.545 46.8411C102.545 49.1878 104.17 50.8851 106.676 50.8851C107.964 50.8851 109.015 50.4424 109.687 49.6011L108.748 48.4646C108.216 49.0402 107.558 49.3207 106.718 49.3207C105.416 49.3207 104.506 48.5827 104.296 47.4315H110.163C110.177 47.2544 110.191 47.033 110.191 46.8854ZM106.41 44.2878C107.558 44.2878 108.384 45.07 108.524 46.2065H104.282C104.45 45.0552 105.276 44.2878 106.41 44.2878Z" fill="#00A9BE"/>
<path d="M112.432 50.8851C113.062 50.8851 113.58 50.3686 113.58 49.6601C113.58 48.9222 113.062 48.4351 112.432 48.4351C111.802 48.4351 111.284 48.9222 111.284 49.6601C111.284 50.3686 111.802 50.8851 112.432 50.8851Z" fill="#00A9BE"/>
</svg>
