<svg width="28" height="22" viewBox="0 0 28 22" fill="none" xmlns="http://www.w3.org/2000/svg">
<path d="M27.3979 2.63573C26.4057 3.07636 25.3564 3.36765 24.2827 3.50052C25.4155 2.80777 26.2644 1.71794 26.6719 0.433208C25.6074 1.08189 24.4421 1.53892 23.2267 1.78445C22.4143 0.882593 21.3325 0.28227 20.1509 0.0776311C18.9693 -0.127007 17.7547 0.0756137 16.6977 0.653716C15.6408 1.23182 14.8011 2.1527 14.3105 3.27194C13.8198 4.39118 13.706 5.64547 13.9868 6.83809C11.8344 6.72665 9.72905 6.15295 7.80743 5.15426C5.8858 4.15557 4.1909 2.75422 2.83283 1.04127C2.3565 1.89278 2.1062 2.85709 2.10684 3.83833C2.10515 4.74959 2.3236 5.64713 2.74275 6.45105C3.1619 7.25496 3.76873 7.94031 4.50922 8.44606C3.64856 8.42209 2.80628 8.18568 2.05404 7.75693V7.82449C2.06049 9.10127 2.49755 10.3366 3.29129 11.3215C4.08502 12.3063 5.18672 12.9803 6.41001 13.2295C5.93911 13.3762 5.45021 13.4535 4.95802 13.4592C4.61732 13.4551 4.27746 13.4235 3.94163 13.3646C4.28999 14.4629 4.96412 15.4227 5.87023 16.1105C6.77634 16.7983 7.86936 17.1799 8.99719 17.2021C7.09271 18.7361 4.74139 19.5733 2.31804 19.5803C1.87681 19.5818 1.43593 19.5547 0.998047 19.4992C3.47228 21.1346 6.35564 22.0027 9.30079 21.999C11.3332 22.0206 13.3494 21.6274 15.2317 20.8425C17.1139 20.0575 18.8246 18.8964 20.2636 17.4271C21.7026 15.9578 22.8412 14.2096 23.6129 12.2848C24.3845 10.36 24.7738 8.29706 24.7579 6.21652C24.7579 5.98681 24.7579 5.74358 24.7579 5.50036C25.7937 4.70963 26.687 3.74027 27.3979 2.63573Z" fill="#00A9BE"/>
</svg>
